<svg width="300" height="302" viewBox="0 0 300 302" fill="none" xmlns="http://www.w3.org/2000/svg">
<ellipse cx="150" cy="150.53" rx="150" ry="150.53" fill="#EE4367"/>
<path d="M70.2117 99.2939H62.4548V107.457H60.0173V88.9727H71.4685V90.9785H62.4548V97.3008H70.2117V99.2939ZM82.0691 107.457C81.9337 107.186 81.8236 106.704 81.739 106.01C80.6472 107.144 79.3438 107.711 77.8289 107.711C76.4747 107.711 75.3617 107.33 74.49 106.568C73.6267 105.798 73.1951 104.825 73.1951 103.648C73.1951 102.218 73.7367 101.109 74.8201 100.322C75.9119 99.5267 77.4438 99.1289 79.4158 99.1289H81.7009V98.0498C81.7009 97.2288 81.4555 96.5771 80.9646 96.0947C80.4737 95.6038 79.7501 95.3584 78.7937 95.3584C77.9558 95.3584 77.2533 95.57 76.6863 95.9932C76.1192 96.4163 75.8357 96.9284 75.8357 97.5293H73.4744C73.4744 96.8438 73.7156 96.1836 74.198 95.5488C74.6889 94.9056 75.349 94.3978 76.1785 94.0254C77.0164 93.653 77.9347 93.4668 78.9333 93.4668C80.516 93.4668 81.7559 93.8646 82.6531 94.6602C83.5502 95.4473 84.0157 96.5348 84.0496 97.9229V104.245C84.0496 105.506 84.2104 106.509 84.532 107.254V107.457H82.0691ZM78.1716 105.667C78.908 105.667 79.6062 105.477 80.2664 105.096C80.9265 104.715 81.4047 104.22 81.7009 103.61V100.792H79.8601C76.9825 100.792 75.5437 101.634 75.5437 103.318C75.5437 104.055 75.7891 104.63 76.28 105.045C76.7709 105.46 77.4014 105.667 78.1716 105.667ZM93.241 105.794C94.0789 105.794 94.811 105.54 95.4373 105.032C96.0636 104.524 96.4106 103.89 96.4783 103.128H98.7C98.6576 103.915 98.3868 104.664 97.8875 105.375C97.3881 106.086 96.7195 106.653 95.8816 107.076C95.0522 107.499 94.172 107.711 93.241 107.711C91.3705 107.711 89.8809 107.089 88.7722 105.845C87.672 104.592 87.1218 102.882 87.1218 100.716V100.322C87.1218 98.985 87.3673 97.7959 87.8582 96.7549C88.349 95.7139 89.0515 94.9056 89.9656 94.3301C90.8881 93.7546 91.9757 93.4668 93.2283 93.4668C94.7686 93.4668 96.0466 93.9281 97.0623 94.8506C98.0863 95.7731 98.6322 96.9707 98.7 98.4434H96.4783C96.4106 97.5547 96.072 96.8268 95.4626 96.2598C94.8617 95.6842 94.1169 95.3965 93.2283 95.3965C92.0349 95.3965 91.1082 95.8281 90.448 96.6914C89.7963 97.5462 89.4705 98.7861 89.4705 100.411V100.855C89.4705 102.438 89.7963 103.657 90.448 104.512C91.0997 105.367 92.0307 105.794 93.241 105.794ZM93.6218 107.571L93.4695 108.231C94.7644 108.46 95.4119 109.192 95.4119 110.428C95.4119 111.249 95.0733 111.896 94.3962 112.37C93.7192 112.853 92.7755 113.094 91.5652 113.094L91.4763 111.735C92.1449 111.735 92.6612 111.625 93.0251 111.405C93.3975 111.185 93.5837 110.876 93.5837 110.479C93.5837 110.106 93.4483 109.831 93.1775 109.653C92.9067 109.476 92.3565 109.349 91.5271 109.272L91.9333 107.571H93.6218ZM109.821 107.457C109.686 107.186 109.576 106.704 109.491 106.01C108.399 107.144 107.096 107.711 105.581 107.711C104.227 107.711 103.114 107.33 102.242 106.568C101.379 105.798 100.947 104.825 100.947 103.648C100.947 102.218 101.489 101.109 102.572 100.322C103.664 99.5267 105.196 99.1289 107.168 99.1289H109.453V98.0498C109.453 97.2288 109.207 96.5771 108.717 96.0947C108.226 95.6038 107.502 95.3584 106.546 95.3584C105.708 95.3584 105.005 95.57 104.438 95.9932C103.871 96.4163 103.588 96.9284 103.588 97.5293H101.226C101.226 96.8438 101.468 96.1836 101.95 95.5488C102.441 94.9056 103.101 94.3978 103.93 94.0254C104.768 93.653 105.687 93.4668 106.685 93.4668C108.268 93.4668 109.508 93.8646 110.405 94.6602C111.302 95.4473 111.768 96.5348 111.802 97.9229V104.245C111.802 105.506 111.962 106.509 112.284 107.254V107.457H109.821ZM105.924 105.667C106.66 105.667 107.358 105.477 108.018 105.096C108.678 104.715 109.157 104.22 109.453 103.61V100.792H107.612C104.734 100.792 103.296 101.634 103.296 103.318C103.296 104.055 103.541 104.63 104.032 105.045C104.523 105.46 105.153 105.667 105.924 105.667ZM129.93 103.813C129.93 103.179 129.689 102.688 129.207 102.341C128.733 101.985 127.899 101.681 126.706 101.427C125.521 101.173 124.577 100.868 123.875 100.513C123.181 100.157 122.664 99.734 122.326 99.2432C121.996 98.7523 121.831 98.1683 121.831 97.4912C121.831 96.3656 122.305 95.4134 123.253 94.6348C124.209 93.8561 125.428 93.4668 126.909 93.4668C128.466 93.4668 129.727 93.8688 130.692 94.6729C131.665 95.4769 132.152 96.5052 132.152 97.7578H129.791C129.791 97.1146 129.516 96.5602 128.966 96.0947C128.424 95.6292 127.738 95.3965 126.909 95.3965C126.054 95.3965 125.385 95.5827 124.903 95.9551C124.421 96.3275 124.179 96.8141 124.179 97.415C124.179 97.9821 124.404 98.4095 124.852 98.6973C125.301 98.985 126.109 99.2601 127.277 99.5225C128.454 99.7848 129.406 100.098 130.134 100.462C130.861 100.826 131.399 101.266 131.746 101.782C132.101 102.29 132.279 102.912 132.279 103.648C132.279 104.876 131.788 105.862 130.806 106.606C129.825 107.343 128.551 107.711 126.985 107.711C125.885 107.711 124.912 107.516 124.065 107.127C123.219 106.738 122.554 106.196 122.072 105.502C121.598 104.799 121.361 104.042 121.361 103.229H123.71C123.752 104.017 124.065 104.643 124.649 105.108C125.242 105.565 126.02 105.794 126.985 105.794C127.874 105.794 128.585 105.616 129.118 105.261C129.66 104.897 129.93 104.414 129.93 103.813ZM141.039 107.711C139.177 107.711 137.662 107.102 136.494 105.883C135.326 104.656 134.742 103.018 134.742 100.97V100.538C134.742 99.1755 135 97.9609 135.516 96.8945C136.041 95.8197 136.769 94.9818 137.7 94.3809C138.639 93.7715 139.655 93.4668 140.747 93.4668C142.533 93.4668 143.921 94.055 144.911 95.2314C145.901 96.4079 146.396 98.0921 146.396 100.284V101.262H137.091C137.124 102.616 137.518 103.712 138.271 104.55C139.033 105.379 139.998 105.794 141.166 105.794C141.995 105.794 142.698 105.625 143.273 105.286C143.849 104.948 144.352 104.499 144.784 103.94L146.219 105.058C145.067 106.826 143.341 107.711 141.039 107.711ZM140.747 95.3965C139.799 95.3965 139.003 95.7435 138.36 96.4375C137.717 97.123 137.319 98.0879 137.167 99.332H144.048V99.1543C143.98 97.9609 143.658 97.0384 143.083 96.3867C142.507 95.7266 141.729 95.3965 140.747 95.3965ZM157.606 106.099C156.692 107.174 155.351 107.711 153.582 107.711C152.118 107.711 151 107.288 150.23 106.441C149.469 105.587 149.083 104.326 149.075 102.658V93.7207H151.424V102.595C151.424 104.677 152.27 105.718 153.963 105.718C155.757 105.718 156.95 105.049 157.543 103.712V93.7207H159.891V107.457H157.657L157.606 106.099ZM175.43 105.794C176.268 105.794 177 105.54 177.627 105.032C178.253 104.524 178.6 103.89 178.668 103.128H180.889C180.847 103.915 180.576 104.664 180.077 105.375C179.578 106.086 178.909 106.653 178.071 107.076C177.242 107.499 176.361 107.711 175.43 107.711C173.56 107.711 172.07 107.089 170.962 105.845C169.861 104.592 169.311 102.882 169.311 100.716V100.322C169.311 98.985 169.557 97.7959 170.048 96.7549C170.538 95.7139 171.241 94.9056 172.155 94.3301C173.078 93.7546 174.165 93.4668 175.418 93.4668C176.958 93.4668 178.236 93.9281 179.252 94.8506C180.276 95.7731 180.822 96.9707 180.889 98.4434H178.668C178.6 97.5547 178.261 96.8268 177.652 96.2598C177.051 95.6842 176.306 95.3965 175.418 95.3965C174.224 95.3965 173.298 95.8281 172.637 96.6914C171.986 97.5462 171.66 98.7861 171.66 100.411V100.855C171.66 102.438 171.986 103.657 172.637 104.512C173.289 105.367 174.22 105.794 175.43 105.794ZM192.01 107.457C191.875 107.186 191.765 106.704 191.68 106.01C190.589 107.144 189.285 107.711 187.77 107.711C186.416 107.711 185.303 107.33 184.431 106.568C183.568 105.798 183.136 104.825 183.136 103.648C183.136 102.218 183.678 101.109 184.761 100.322C185.853 99.5267 187.385 99.1289 189.357 99.1289H191.642V98.0498C191.642 97.2288 191.397 96.5771 190.906 96.0947C190.415 95.6038 189.691 95.3584 188.735 95.3584C187.897 95.3584 187.195 95.57 186.628 95.9932C186.061 96.4163 185.777 96.9284 185.777 97.5293H183.416C183.416 96.8438 183.657 96.1836 184.139 95.5488C184.63 94.9056 185.29 94.3978 186.12 94.0254C186.958 93.653 187.876 93.4668 188.875 93.4668C190.457 93.4668 191.697 93.8646 192.594 94.6602C193.492 95.4473 193.957 96.5348 193.991 97.9229V104.245C193.991 105.506 194.152 106.509 194.473 107.254V107.457H192.01ZM188.113 105.667C188.849 105.667 189.548 105.477 190.208 105.096C190.868 104.715 191.346 104.22 191.642 103.61V100.792H189.802C186.924 100.792 185.485 101.634 185.485 103.318C185.485 104.055 185.731 104.63 186.221 105.045C186.712 105.46 187.343 105.667 188.113 105.667ZM197.101 100.475C197.101 98.3672 197.601 96.6745 198.599 95.3965C199.598 94.11 200.906 93.4668 202.522 93.4668C204.13 93.4668 205.404 94.0169 206.344 95.1172V87.957H208.692V107.457H206.534L206.42 105.984C205.48 107.135 204.173 107.711 202.497 107.711C200.906 107.711 199.607 107.059 198.599 105.756C197.601 104.452 197.101 102.751 197.101 100.652V100.475ZM199.45 100.741C199.45 102.299 199.772 103.517 200.415 104.397C201.058 105.278 201.947 105.718 203.081 105.718C204.57 105.718 205.658 105.049 206.344 103.712V97.4023C205.641 96.1074 204.562 95.46 203.106 95.46C201.955 95.46 201.058 95.9043 200.415 96.793C199.772 97.6816 199.45 98.9977 199.45 100.741ZM220.829 107.457C220.693 107.186 220.583 106.704 220.499 106.01C219.407 107.144 218.104 107.711 216.589 107.711C215.234 107.711 214.122 107.33 213.25 106.568C212.386 105.798 211.955 104.825 211.955 103.648C211.955 102.218 212.497 101.109 213.58 100.322C214.672 99.5267 216.204 99.1289 218.176 99.1289H220.461V98.0498C220.461 97.2288 220.215 96.5771 219.724 96.0947C219.233 95.6038 218.51 95.3584 217.553 95.3584C216.716 95.3584 216.013 95.57 215.446 95.9932C214.879 96.4163 214.595 96.9284 214.595 97.5293H212.234C212.234 96.8438 212.475 96.1836 212.958 95.5488C213.449 94.9056 214.109 94.3978 214.938 94.0254C215.776 93.653 216.694 93.4668 217.693 93.4668C219.276 93.4668 220.516 93.8646 221.413 94.6602C222.31 95.4473 222.775 96.5348 222.809 97.9229V104.245C222.809 105.506 222.97 106.509 223.292 107.254V107.457H220.829ZM216.931 105.667C217.668 105.667 218.366 105.477 219.026 105.096C219.686 104.715 220.164 104.22 220.461 103.61V100.792H218.62C215.742 100.792 214.303 101.634 214.303 103.318C214.303 104.055 214.549 104.63 215.04 105.045C215.531 105.46 216.161 105.667 216.931 105.667ZM234.489 103.813C234.489 103.179 234.248 102.688 233.765 102.341C233.291 101.985 232.458 101.681 231.264 101.427C230.08 101.173 229.136 100.868 228.433 100.513C227.739 100.157 227.223 99.734 226.885 99.2432C226.554 98.7523 226.389 98.1683 226.389 97.4912C226.389 96.3656 226.863 95.4134 227.811 94.6348C228.768 93.8561 229.986 93.4668 231.468 93.4668C233.025 93.4668 234.286 93.8688 235.251 94.6729C236.224 95.4769 236.711 96.5052 236.711 97.7578H234.349C234.349 97.1146 234.074 96.5602 233.524 96.0947C232.983 95.6292 232.297 95.3965 231.468 95.3965C230.613 95.3965 229.944 95.5827 229.462 95.9551C228.979 96.3275 228.738 96.8141 228.738 97.415C228.738 97.9821 228.962 98.4095 229.411 98.6973C229.859 98.985 230.668 99.2601 231.836 99.5225C233.012 99.7848 233.964 100.098 234.692 100.462C235.42 100.826 235.957 101.266 236.304 101.782C236.66 102.29 236.838 102.912 236.838 103.648C236.838 104.876 236.347 105.862 235.365 106.606C234.383 107.343 233.109 107.711 231.544 107.711C230.443 107.711 229.47 107.516 228.624 107.127C227.777 106.738 227.113 106.196 226.631 105.502C226.157 104.799 225.92 104.042 225.92 103.229H228.268C228.311 104.017 228.624 104.643 229.208 105.108C229.8 105.565 230.579 105.794 231.544 105.794C232.432 105.794 233.143 105.616 233.677 105.261C234.218 104.897 234.489 104.414 234.489 103.813ZM243.084 90.3945V93.7207H245.648V95.5361H243.084V104.055C243.084 104.605 243.198 105.02 243.427 105.299C243.655 105.57 244.044 105.705 244.594 105.705C244.865 105.705 245.238 105.654 245.712 105.553V107.457C245.094 107.626 244.493 107.711 243.909 107.711C242.859 107.711 242.068 107.394 241.535 106.759C241.002 106.124 240.735 105.223 240.735 104.055V95.5361H238.234V93.7207H240.735V90.3945H243.084ZM255.043 95.8281C254.687 95.7689 254.302 95.7393 253.887 95.7393C252.347 95.7393 251.302 96.3952 250.752 97.707V107.457H248.403V93.7207H250.688L250.726 95.3076C251.497 94.0804 252.588 93.4668 254.002 93.4668C254.459 93.4668 254.806 93.526 255.043 93.6445V95.8281ZM256.338 100.462C256.338 99.1162 256.6 97.9059 257.125 96.8311C257.658 95.7562 258.394 94.9268 259.334 94.3428C260.282 93.7588 261.361 93.4668 262.571 93.4668C264.441 93.4668 265.952 94.1143 267.103 95.4092C268.263 96.7041 268.843 98.4264 268.843 100.576V100.741C268.843 102.078 268.584 103.28 268.068 104.347C267.56 105.405 266.828 106.23 265.872 106.822C264.924 107.415 263.832 107.711 262.596 107.711C260.734 107.711 259.224 107.063 258.064 105.769C256.913 104.474 256.338 102.76 256.338 100.627V100.462ZM258.699 100.741C258.699 102.265 259.05 103.488 259.753 104.41C260.464 105.333 261.412 105.794 262.596 105.794C263.79 105.794 264.738 105.328 265.44 104.397C266.143 103.458 266.494 102.146 266.494 100.462C266.494 98.9554 266.134 97.7367 265.415 96.8057C264.704 95.8662 263.756 95.3965 262.571 95.3965C261.412 95.3965 260.476 95.8577 259.765 96.7803C259.054 97.7028 258.699 99.0231 258.699 100.741Z" fill="white"/>
<path d="M100.296 140H98.6084V127.203H100.296V140ZM113.225 140H111.528L105.086 130.139V140H103.39V127.203H105.086L111.546 137.108V127.203H113.225V140ZM119.992 134.296C118.545 133.88 117.49 133.37 116.828 132.767C116.172 132.157 115.844 131.407 115.844 130.517C115.844 129.509 116.245 128.677 117.048 128.021C117.856 127.358 118.905 127.027 120.194 127.027C121.073 127.027 121.855 127.197 122.541 127.537C123.232 127.877 123.766 128.346 124.141 128.943C124.521 129.541 124.712 130.194 124.712 130.903H123.016C123.016 130.13 122.77 129.523 122.277 129.084C121.785 128.639 121.091 128.416 120.194 128.416C119.362 128.416 118.712 128.601 118.243 128.97C117.78 129.333 117.549 129.84 117.549 130.49C117.549 131.012 117.769 131.454 118.208 131.817C118.653 132.175 119.406 132.503 120.467 132.802C121.533 133.101 122.365 133.432 122.963 133.795C123.566 134.152 124.012 134.571 124.299 135.052C124.592 135.532 124.738 136.098 124.738 136.748C124.738 137.785 124.334 138.617 123.525 139.244C122.717 139.865 121.636 140.176 120.282 140.176C119.403 140.176 118.583 140.009 117.821 139.675C117.06 139.335 116.471 138.872 116.055 138.286C115.645 137.7 115.439 137.035 115.439 136.291H117.136C117.136 137.064 117.42 137.677 117.988 138.128C118.562 138.573 119.327 138.796 120.282 138.796C121.173 138.796 121.855 138.614 122.33 138.251C122.805 137.888 123.042 137.393 123.042 136.766C123.042 136.139 122.822 135.655 122.383 135.315C121.943 134.97 121.146 134.63 119.992 134.296ZM128.597 134.99V140H126.909V127.203H131.629C133.029 127.203 134.125 127.561 134.916 128.275C135.713 128.99 136.111 129.937 136.111 131.114C136.111 132.356 135.722 133.314 134.942 133.988C134.169 134.656 133.059 134.99 131.611 134.99H128.597ZM128.597 133.61H131.629C132.531 133.61 133.223 133.399 133.703 132.978C134.184 132.55 134.424 131.935 134.424 131.132C134.424 130.37 134.184 129.761 133.703 129.304C133.223 128.847 132.563 128.609 131.726 128.592H128.597V133.61ZM142.958 134.823H139.952V140H138.256V127.203H142.492C143.934 127.203 145.041 127.531 145.814 128.188C146.594 128.844 146.983 129.799 146.983 131.053C146.983 131.85 146.767 132.544 146.333 133.136C145.905 133.728 145.308 134.17 144.54 134.463L147.546 139.895V140H145.735L142.958 134.823ZM139.952 133.443H142.545C143.383 133.443 144.048 133.227 144.54 132.793C145.038 132.359 145.287 131.779 145.287 131.053C145.287 130.262 145.05 129.655 144.575 129.233C144.106 128.812 143.427 128.598 142.536 128.592H139.952V133.443ZM156.59 134.085H151.044V138.62H157.486V140H149.356V127.203H157.398V128.592H151.044V132.705H156.59V134.085ZM166.653 136.66H161.292L160.088 140H158.348L163.234 127.203H164.711L169.606 140H167.875L166.653 136.66ZM161.802 135.271H166.152L163.973 129.286L161.802 135.271ZM171.329 140V127.203H174.941C176.055 127.203 177.039 127.449 177.895 127.941C178.75 128.434 179.409 129.134 179.872 130.042C180.341 130.95 180.578 131.993 180.584 133.171V133.988C180.584 135.195 180.35 136.253 179.881 137.161C179.418 138.069 178.753 138.767 177.886 139.253C177.024 139.739 176.02 139.988 174.871 140H171.329ZM173.017 128.592V138.62H174.792C176.093 138.62 177.104 138.216 177.824 137.407C178.551 136.599 178.914 135.447 178.914 133.953V133.206C178.914 131.753 178.571 130.625 177.886 129.822C177.206 129.014 176.239 128.604 174.985 128.592H173.017ZM186.271 135.228H181.981V133.9H186.271V135.228ZM191.887 134.296C190.439 133.88 189.385 133.37 188.723 132.767C188.066 132.157 187.738 131.407 187.738 130.517C187.738 129.509 188.14 128.677 188.942 128.021C189.751 127.358 190.8 127.027 192.089 127.027C192.968 127.027 193.75 127.197 194.436 127.537C195.127 127.877 195.66 128.346 196.035 128.943C196.416 129.541 196.606 130.194 196.606 130.903H194.91C194.91 130.13 194.664 129.523 194.172 129.084C193.68 128.639 192.985 128.416 192.089 128.416C191.257 128.416 190.606 128.601 190.138 128.97C189.675 129.333 189.443 129.84 189.443 130.49C189.443 131.012 189.663 131.454 190.103 131.817C190.548 132.175 191.301 132.503 192.361 132.802C193.428 133.101 194.26 133.432 194.857 133.795C195.461 134.152 195.906 134.571 196.193 135.052C196.486 135.532 196.633 136.098 196.633 136.748C196.633 137.785 196.229 138.617 195.42 139.244C194.611 139.865 193.53 140.176 192.177 140.176C191.298 140.176 190.478 140.009 189.716 139.675C188.954 139.335 188.365 138.872 187.949 138.286C187.539 137.7 187.334 137.035 187.334 136.291H189.03C189.03 137.064 189.314 137.677 189.883 138.128C190.457 138.573 191.222 138.796 192.177 138.796C193.067 138.796 193.75 138.614 194.225 138.251C194.699 137.888 194.937 137.393 194.937 136.766C194.937 136.139 194.717 135.655 194.277 135.315C193.838 134.97 193.041 134.63 191.887 134.296ZM206.037 134.085H200.491V138.62H206.934V140H198.804V127.203H206.846V128.592H200.491V132.705H206.037V134.085Z" fill="white"/>
<path d="M119.565 235.589V228.465C119.565 227.125 119.131 226.363 117.881 226.363C116.783 226.363 115.609 227.23 115.609 228.912V235.485H111.218V224.917C111.218 222.497 111.754 222.497 115.609 222.497V224.836C116.681 223.154 118.262 222.34 120.024 222.34C122.678 222.34 123.955 223.89 123.955 226.704V233.17C123.955 235.589 123.42 235.589 119.565 235.589Z" fill="white"/>
<path d="M131.766 235.746C129.188 235.746 126.764 234.983 126.764 232.46V231.171C128.014 231.75 129.418 231.959 130.695 231.959C132.149 231.959 133.068 231.67 133.068 230.935C133.068 229.041 125.794 230.645 125.794 224.311C125.794 220.42 128.857 218.29 132.864 218.29C136.31 218.29 138.759 219.762 138.759 222.233C138.759 223.732 137.56 224.703 135.747 224.703H134.752V224.177C134.752 222.916 134.217 221.943 132.788 221.943C131.69 221.943 130.95 222.522 130.95 223.468C130.95 226.701 138.199 224.388 138.199 230.381C138.197 233.985 135.212 235.746 131.766 235.746Z" fill="white"/>
<path d="M140.317 239.819V224.915C140.317 222.496 140.852 222.496 144.707 222.496V224.651C145.702 223.179 147.183 222.338 148.994 222.338C152.312 222.338 153.741 224.915 153.741 228.489C153.741 232.406 151.444 235.745 147.972 235.745C146.619 235.745 145.496 235.351 144.705 234.484V239.821H140.317V239.819ZM147.335 225.939C145.856 225.939 144.834 227.49 144.834 229.62C144.834 230.776 145.268 232.065 146.748 232.065C148.356 232.065 149.199 230.356 149.199 228.674C149.199 227.254 148.739 225.939 147.335 225.939Z" fill="white"/>
<path d="M155.58 235.483V224.915C155.58 222.496 156.115 222.496 159.97 222.496V225.072C160.94 223.258 162.166 222.338 163.441 222.338C164.615 222.338 164.921 223.205 164.666 226.728C161.757 226.07 159.97 226.806 159.97 230.934V235.481H155.58V235.483Z" fill="white"/>
<path d="M177.428 232.853C177.428 235.034 174.492 235.745 172.144 235.745C168.213 235.745 165.534 233.3 165.534 228.621C165.534 225.045 168.036 222.338 172.068 222.338C176.075 222.338 178.218 224.887 178.218 228.778C178.218 230.118 177.12 230.382 176.201 230.382H170.382C170.892 231.749 172.016 232.433 173.955 232.433C175.205 232.433 176.278 232.222 177.426 231.828V232.853H177.428ZM170.078 227.805H173.191C173.522 227.805 173.651 227.516 173.651 227.307C173.651 226.176 173.141 225.256 171.992 225.256C170.767 225.256 170.179 226.097 170.078 227.805Z" fill="white"/>
<path d="M184.065 227.91L186.516 227.699V227.62C186.415 225.754 184.933 225.439 183.504 225.439C182.33 225.439 181.258 225.807 180.288 226.227V225.124C180.288 222.968 183.351 222.338 185.368 222.338C188.276 222.338 190.677 223.258 190.983 227.596L191.417 233.905C191.545 235.587 189.554 235.587 186.95 235.587L186.849 233.8C185.776 235.036 184.398 235.745 182.764 235.745C180.288 235.745 179.114 233.773 179.114 231.854C179.112 229.699 180.415 228.227 184.065 227.91ZM184.78 232.721C185.878 232.721 186.592 231.432 186.643 230.144L184.83 230.38C184.116 230.485 183.759 230.985 183.759 231.563C183.758 232.222 184.141 232.721 184.78 232.721Z" fill="white"/>
<path d="M198.434 222.337C199.736 222.337 200.885 222.757 201.701 223.652V218.551H206.091V233.168C206.091 235.587 205.555 235.587 201.701 235.587V233.353C200.653 234.878 199.123 235.744 197.285 235.744C194.069 235.744 192.665 233.168 192.665 229.593C192.666 225.675 194.962 222.337 198.434 222.337ZM199.072 232.143C200.552 232.143 201.574 230.592 201.574 228.463C201.574 227.306 201.14 226.018 199.66 226.018C198.052 226.018 197.209 227.726 197.209 229.408C197.209 230.829 197.668 232.143 199.072 232.143Z" fill="white"/>
<path d="M101.814 257.314H100.46C98.8818 257.314 98.2146 256.648 98.2146 254.96V244.519H97C97 244.082 97.0203 243.894 97.2635 243.894H101.877C105.377 243.894 108.25 245.665 108.25 250.063C108.249 254.71 105.274 257.314 101.814 257.314ZM98.821 244.519V254.919C98.821 256.129 99.2855 256.691 100.5 256.691H101.796C104.892 256.691 107.602 254.398 107.602 250.063C107.602 246.04 104.972 244.519 101.796 244.519H98.821Z" fill="white"/>
<path d="M111.426 244.582C111.041 244.582 110.859 244.352 110.859 243.977C110.859 243.622 111.041 243.395 111.426 243.395C111.79 243.395 111.972 243.624 111.972 243.977C111.972 244.352 111.79 244.582 111.426 244.582ZM111.102 257.316V247.791C111.102 247.457 111.183 247.436 111.688 247.436V257.316H111.102Z" fill="white"/>
<path d="M119.68 247.164C119.68 247.414 119.761 247.601 119.944 247.789C120.814 248.33 121.339 249.249 121.339 250.416C121.339 252.312 119.802 253.563 117.92 253.563H117.9C116.261 253.604 115.432 254.022 115.432 254.773C115.432 255.46 115.999 255.919 117.172 255.919H118.851C120.57 255.919 122.047 256.356 122.047 258.023C122.047 260.106 119.781 260.961 117.677 260.961C115.694 260.961 113.954 260.211 113.954 258.46C113.954 257.355 114.722 256.604 115.876 256.272C115.249 256.022 114.884 255.542 114.884 254.855C114.884 254.041 115.491 253.563 116.523 253.333C115.329 252.897 114.499 251.875 114.499 250.416C114.499 248.457 115.895 247.248 117.918 247.248C118.444 247.248 118.93 247.352 119.354 247.498C119.293 247.373 119.273 247.206 119.273 247.039C119.273 245.517 120.912 244.955 122.146 244.955C122.39 244.955 122.43 245.121 122.43 245.58C121.136 245.539 119.68 246.081 119.68 247.164ZM117.151 256.46C115.513 256.502 114.541 257.315 114.541 258.398C114.541 259.836 116.018 260.461 117.717 260.461C119.599 260.461 121.44 259.752 121.44 258.085C121.44 256.793 120.185 256.459 118.749 256.459H117.151V256.46ZM117.92 247.81C116.2 247.81 115.087 248.81 115.087 250.436C115.087 252.083 116.32 253.063 117.92 253.063C119.52 253.063 120.773 251.98 120.773 250.436C120.773 248.915 119.66 247.81 117.92 247.81Z" fill="white"/>
<path d="M124.738 244.582C124.352 244.582 124.172 244.352 124.172 243.977C124.172 243.622 124.354 243.395 124.738 243.395C125.102 243.395 125.283 243.624 125.283 243.977C125.283 244.352 125.102 244.582 124.738 244.582ZM124.415 257.316V247.791C124.415 247.457 124.496 247.436 125.001 247.436V257.316H124.415Z" fill="white"/>
<path d="M129.431 248.041V253.397C129.431 255.544 129.855 256.94 131.798 256.94C132.486 256.94 133.153 256.774 133.741 256.44V256.69C133.741 257.211 132.546 257.525 131.636 257.525C129.531 257.525 128.844 256.108 128.844 253.524V248.043L127.448 247.834C127.448 247.729 127.489 247.542 127.57 247.458H128.845V245.332C128.845 245.02 128.926 244.998 129.431 244.998V247.457H133.437C133.68 247.457 133.7 247.623 133.7 248.041H129.431Z" fill="white"/>
<path d="M138.798 251.939L141.934 251.564L141.873 250.563C141.731 248.521 140.457 247.834 138.939 247.834C137.906 247.834 137.057 248.104 136.248 248.543V248.313C136.248 247.834 137.765 247.251 139.121 247.251C140.719 247.251 142.297 247.938 142.459 250.481L142.883 257.004C142.903 257.315 142.782 257.336 142.297 257.336L142.054 253.688C141.427 256.126 139.989 257.523 138.107 257.523C136.368 257.523 135.457 256.231 135.457 254.75C135.46 253.147 136.533 252.23 138.798 251.939ZM138.273 257.004C140.195 257.004 141.733 255.045 141.935 252.064L138.881 252.46C136.999 252.689 136.129 253.44 136.129 254.732C136.128 256.003 136.876 257.004 138.273 257.004Z" fill="white"/>
<path d="M145.92 257.315V243.476C145.92 243.162 146.001 243.142 146.507 243.142V257.313H145.92V257.315Z" fill="white"/>
<path d="M103.237 211.959C106.454 211.959 109.063 209.314 109.063 206.05C109.063 202.786 106.454 200.141 103.237 200.141C100.019 200.141 97.4104 202.786 97.4104 206.05C97.4104 209.314 100.019 211.959 103.237 211.959Z" fill="white"/>
<path d="M108.176 219.553V235.48H106.193C101.831 235.48 98.2957 233.385 98.2957 230.799V214.87H100.275C104.639 214.87 108.176 216.967 108.176 219.553Z" fill="white"/>
<path d="M120.849 196.624C120.594 199.646 119.153 203.149 117.122 206.132C115.668 208.268 113.91 210.137 112.065 211.373C110.61 212.348 109.284 212.804 108.176 212.79C110.7 209.567 112.565 205.453 112.857 201.975C113.151 198.497 111.801 196.535 109.55 196.511C110.793 194.924 112.195 193.552 113.649 192.579C115.492 191.343 117.128 190.941 118.374 191.268C120.118 191.726 121.104 193.602 120.849 196.624Z" fill="white"/>
<path d="M117.638 190.096C118.888 188.77 120.224 187.623 121.587 186.755C123.874 185.298 125.873 184.851 127.376 185.281C129.471 185.883 130.594 188.194 130.165 191.871C129.736 195.546 127.847 199.776 125.263 203.357C123.41 205.924 121.202 208.155 118.915 209.611C117.552 210.48 116.29 210.989 115.173 211.167C118.942 207.166 121.918 201.507 122.472 196.768C123.026 192.029 121.001 189.556 117.638 190.096Z" fill="white"/>
<path d="M141.491 186.169C140.375 193.704 134.074 203.083 127.413 207.123C125.754 208.129 124.23 208.708 122.893 208.895C127.536 204.199 131.298 197.501 132.136 191.842C132.974 186.184 130.65 183.175 126.617 183.741C128.156 182.183 129.793 180.845 131.452 179.84C138.114 175.801 142.608 178.633 141.491 186.169Z" fill="white"/>
</svg>
