<svg width="57" height="57" viewBox="0 0 57 57" fill="none" xmlns="http://www.w3.org/2000/svg">
<path d="M28.167 55.919C43.1709 55.919 55.334 43.7559 55.334 28.752C55.334 13.748 43.1709 1.58496 28.167 1.58496C13.1631 1.58496 1 13.748 1 28.752C1 43.7559 13.1631 55.919 28.167 55.919Z" stroke="#707070" stroke-width="2"/>
<path d="M30.18 29.943C29.798 29.954 29.77 30.322 29.77 30.517C29.77 34.0183 29.77 37.5183 29.77 41.017C29.77 41.63 29.759 42.4261 29.17 42.4261C27.27 42.4261 28.17 42.4561 25.558 42.4561C24.939 42.4561 24.865 42.471 24.865 41.856C24.865 38.0507 24.865 34.2461 24.865 30.4421C24.865 29.8691 24.855 29.8591 24.295 29.8581C23.349 29.8581 22.932 29.8581 21.986 29.8581C21.323 29.8581 21.376 29.797 21.355 29.239C21.323 28.423 21.323 26.133 21.323 25.464C21.323 25.205 21.407 25.1201 21.665 25.1241C22.576 25.1361 23.488 25.115 24.399 25.135C24.723 25.142 24.829 25.055 24.826 24.719C24.811 23.425 24.787 22.1291 24.838 20.8361C24.8175 19.4924 25.2763 18.1854 26.1321 17.1493C26.9879 16.1132 28.1847 15.4158 29.508 15.182C30.7154 14.9526 31.9483 14.888 33.173 14.99C33.687 15.005 34.147 15.0621 34.713 15.1031C34.95 15.1191 34.996 15.2141 34.991 15.4211C34.958 16.7151 34.928 18.009 34.91 19.303C34.91 19.56 34.791 19.6031 34.568 19.6031C33.486 19.6031 32.403 19.5161 31.322 19.6241C31.1351 19.6183 30.9489 19.6508 30.775 19.7195C30.6011 19.7883 30.4431 19.8918 30.3107 20.0238C30.1782 20.1559 30.0742 20.3136 30.005 20.4873C29.9357 20.6611 29.9027 20.8472 29.908 21.0341C29.793 22.3121 29.885 23.595 29.855 24.875C29.848 25.182 30.055 25.1281 30.23 25.1281C31.6567 25.1281 33.0833 25.1281 34.51 25.1281C35.02 25.1281 35.047 25.1281 34.995 25.6491C34.863 26.9821 34.63 28.269 34.411 29.475C34.334 29.9 34.193 29.9281 33.841 29.9301C32.309 29.9401 31.646 29.939 30.18 29.943Z" fill="#707070"/>
</svg>
