<svg width="56" height="55" viewBox="0 0 56 55" fill="none" xmlns="http://www.w3.org/2000/svg">
<path d="M28.071 53.824C42.5166 53.824 54.227 42.114 54.227 27.669C54.227 13.224 42.5166 1.51398 28.071 1.51398C13.6255 1.51398 1.91504 13.224 1.91504 27.669C1.91504 42.114 13.6255 53.824 28.071 53.824Z" stroke="#707070" stroke-width="2"/>
<path d="M28.249 40.749C25.833 40.749 23.294 40.74 20.702 40.721C19.9341 40.7729 19.1635 40.6725 18.4346 40.4253C17.7057 40.1782 17.0329 39.7893 16.455 39.281C15.4346 38.106 14.9218 36.5744 15.029 35.022C14.997 29.355 14.998 24.648 15.029 20.209C14.9819 19.4553 15.0846 18.6998 15.3313 17.9861C15.5779 17.2724 15.9636 16.6147 16.466 16.051C17.6139 15.038 19.117 14.5222 20.645 14.617C22.986 14.598 25.43 14.588 27.905 14.588C30.318 14.588 32.858 14.597 35.453 14.616C39.22 14.642 41.072 16.507 41.116 20.316C41.135 22.009 41.13 23.731 41.125 25.396C41.125 26.1726 41.125 26.9483 41.125 27.723C41.125 28.485 41.127 29.2473 41.131 30.01C41.137 31.688 41.144 33.423 41.118 35.128C41.2046 36.652 40.6884 38.149 39.681 39.296C39.1141 39.7955 38.4542 40.1783 37.7392 40.4227C37.0242 40.667 36.2681 40.768 35.514 40.72C33.172 40.74 30.729 40.749 28.249 40.749ZM18.542 24.396C18.2 24.396 17.848 24.396 17.418 24.401C17.0732 24.3592 16.7259 24.4547 16.451 24.667C16.3477 24.8068 16.2731 24.9659 16.2318 25.1348C16.1904 25.3037 16.183 25.4791 16.21 25.651C16.232 27.251 16.228 28.875 16.224 30.451C16.224 32.166 16.214 33.933 16.244 35.671C16.1792 36.627 16.4879 37.5709 17.105 38.304C17.4557 38.6141 17.8652 38.8506 18.3091 38.9994C18.753 39.1481 19.2222 39.2061 19.689 39.17C22.489 39.193 25.333 39.205 28.134 39.205C30.834 39.205 33.627 39.194 36.444 39.171C38.815 39.151 39.844 38.11 39.892 35.692C39.926 33.892 39.917 31.227 39.909 28.872C39.909 27.981 39.903 27.153 39.903 26.462C39.9771 25.8252 39.8077 25.1841 39.429 24.667C39.3631 24.5963 39.2838 24.5394 39.1957 24.4996C39.1077 24.4598 39.0126 24.4378 38.916 24.435C38.8997 24.4338 38.8833 24.4338 38.867 24.435C38.859 24.435 37.659 24.435 35.587 24.435C36.687 28.335 35.623 31.67 32.602 33.835C31.3045 34.816 29.7285 35.3589 28.102 35.385C26.6596 35.365 25.2521 34.9387 24.041 34.155C20.605 32.024 19.443 28.749 20.605 24.419C19.745 24.403 19.166 24.396 18.542 24.396ZM28.07 22.555H28.02C27.3526 22.5616 26.6933 22.7023 26.0813 22.9685C25.4692 23.2348 24.9169 23.6212 24.457 24.105C23.9709 24.6094 23.591 25.2062 23.3399 25.8602C23.0888 26.5141 22.9715 27.2118 22.995 27.912C23.0686 29.2144 23.6347 30.4401 24.5786 31.3406C25.5225 32.241 26.7735 32.7488 28.078 32.761H28.138C29.1436 32.7551 30.1248 32.4507 30.9572 31.8865C31.7896 31.3222 32.4357 30.5234 32.8135 29.5915C33.1913 28.6595 33.2838 27.6364 33.0794 26.6518C32.8749 25.6671 32.3826 24.7654 31.665 24.061C31.1959 23.5836 30.6364 23.2046 30.0191 22.946C29.4019 22.6874 28.7392 22.5545 28.07 22.555ZM36.331 16.945C33.812 16.945 33.812 16.991 33.812 19.387C33.812 21.926 33.812 21.926 35.856 21.926H36.065C38.68 21.926 38.68 21.886 38.681 19.774C38.681 18.361 38.681 17.652 38.412 17.299C38.143 16.946 37.6 16.945 36.52 16.945H36.331Z" fill="#707070"/>
</svg>
