<svg width="59" height="59" viewBox="0 0 59 59" fill="none" xmlns="http://www.w3.org/2000/svg">
<path d="M32.5819 25.3C33.6962 23.9662 35.1981 23.0123 36.8792 22.5708C38.5602 22.1292 40.3371 22.2219 41.963 22.836C43.4054 23.5303 44.5313 24.7451 45.114 26.2361C45.6409 27.6772 45.903 29.2017 45.8879 30.7361C45.9129 34.4451 45.9129 38.155 45.9879 41.863C46.0039 42.71 45.7219 42.913 44.9349 42.883H40.52C39.84 42.883 39.611 42.718 39.62 42.001C39.659 38.852 39.6339 35.7011 39.6379 32.5521C39.6506 31.8455 39.5906 31.1394 39.459 30.4451C39.399 29.8236 39.1282 29.2413 38.6917 28.7949C38.2551 28.3485 37.679 28.0649 37.059 27.9911C34.937 27.7161 33.934 28.4051 33.313 29.8171C33.0653 30.417 32.9297 31.0572 32.913 31.706C32.738 35.089 32.802 38.4751 32.845 41.8591C32.855 42.6791 32.6149 42.917 31.8049 42.883C29.9199 42.883 28.9479 42.876 27.3049 42.876C26.7349 42.887 26.536 42.7041 26.537 42.1211C26.553 35.9684 26.553 29.8157 26.537 23.6631C26.537 23.0521 26.72 22.8501 27.345 22.8501H31.845C32.429 22.8501 32.5969 23.0731 32.5969 23.6191C32.5899 24.1091 32.5819 24.601 32.5819 25.3Z" fill="#707070"/>
<path d="M16.4748 32.8661C16.4748 29.8661 16.4969 26.8592 16.4599 23.8562C16.4509 23.1072 16.6209 22.8412 17.4359 22.8412H21.7619C22.6299 22.8412 22.7829 23.1412 22.7779 23.9032C22.7499 28.2312 22.7619 32.56 22.7649 36.888C22.7649 38.596 22.7648 40.3041 22.7978 42.0111C22.8108 42.6481 22.6198 42.898 21.9428 42.879H17.2619C16.6289 42.894 16.4619 42.6602 16.4619 42.0572C16.4879 38.9912 16.4748 35.9291 16.4748 32.8661Z" fill="#707070"/>
<path d="M23.2491 16.6631C23.259 17.1419 23.1716 17.6178 22.9921 18.0618C22.8127 18.5058 22.5449 18.9087 22.2051 19.2461C21.8653 19.5836 21.4606 19.8486 21.0153 20.025C20.5701 20.2013 20.0938 20.2854 19.6151 20.2722C19.1376 20.2694 18.6652 20.1726 18.2252 19.9874C17.7851 19.8021 17.3858 19.5319 17.0501 19.1923C16.7144 18.8527 16.4489 18.4504 16.2687 18.0082C16.0886 17.566 15.9973 17.0927 16.0001 16.6152C16.0028 16.1377 16.0996 15.6655 16.2849 15.2254C16.4701 14.7853 16.7402 14.3859 17.0798 14.0502C17.4194 13.7145 17.8218 13.449 18.264 13.2689C18.7062 13.0887 19.1796 12.9974 19.657 13.0002C20.1361 12.9954 20.6111 13.0874 21.0538 13.2707C21.4964 13.454 21.8975 13.7248 22.233 14.0668C22.5684 14.4089 22.8313 14.8151 23.0059 15.2613C23.1805 15.7074 23.2632 16.1843 23.2491 16.6631Z" fill="#707070"/>
<path d="M29.46 57.918C45.178 57.918 57.92 45.1765 57.92 29.459C57.92 13.7415 45.178 1 29.46 1C13.742 1 1 13.7415 1 29.459C1 45.1765 13.742 57.918 29.46 57.918Z" stroke="#707070" stroke-width="2"/>
</svg>
