<svg width="1024" height="1312" viewBox="0 0 1024 1312" fill="none" xmlns="http://www.w3.org/2000/svg">
<path d="M134.816 774.8C209.272 774.8 269.631 714.441 269.631 639.984C269.631 565.527 209.272 505.168 134.816 505.168C60.359 505.168 0 565.527 0 639.984C0 714.441 60.359 774.8 134.816 774.8Z" fill="#EA4C81"/>
<path d="M249.15 947.985V1311.34H203.261C102.322 1311.34 20.5254 1263.51 20.5254 1204.57V841.126H66.3281C167.31 841.126 249.15 889.003 249.15 947.985Z" fill="#EA4C81"/>
<path d="M542.372 424.884C536.452 493.847 503.137 573.743 456.124 641.799C422.464 690.54 381.76 733.188 339.111 761.361C305.451 783.571 274.772 793.985 249.148 793.682C307.568 720.182 350.692 626.286 357.476 546.953C364.26 467.619 333.019 422.853 280.951 422.291C309.728 386.081 342.179 354.797 375.84 332.587C418.488 304.414 456.34 295.21 485.162 302.686C525.477 313.143 548.292 355.964 542.372 424.884Z" fill="#616160"/>
<path d="M468.051 275.982C496.958 245.734 527.897 219.592 559.44 199.759C612.373 166.53 658.607 156.333 693.392 166.142C741.873 179.882 767.843 232.599 757.904 316.47C747.966 400.297 704.28 496.829 644.478 578.539C601.613 637.089 550.539 687.99 497.606 721.219C466.063 741.052 436.853 752.632 411.057 756.737C498.255 665.434 567.132 536.366 579.965 428.211C592.798 320.056 545.915 263.623 468.051 275.982Z" fill="#FCBD12"/>
<path d="M1020.06 186.363C994.221 358.253 848.387 572.273 694.3 664.397C655.929 687.342 620.627 700.521 589.731 704.798C697.195 597.681 784.22 444.846 803.621 315.778C823.023 186.709 769.226 118.091 675.936 130.968C711.541 95.4493 749.436 64.8999 787.807 41.9553C941.894 -50.1687 1045.9 14.4736 1020.06 186.363Z" fill="#2E62AC"/>
</svg>
