<svg width="646" height="485" viewBox="0 0 646 485" fill="none" xmlns="http://www.w3.org/2000/svg">
<path d="M133.58 336.096V294.516C133.58 286.696 131.01 282.246 123.61 282.246C117.11 282.246 110.16 287.306 110.16 297.126V335.486H84.1699V273.806C84.1699 259.686 87.3399 259.686 110.16 259.686V273.336C116.51 263.516 125.87 258.766 136.3 258.766C152.01 258.766 159.57 267.816 159.57 284.236V321.976C159.57 336.096 156.4 336.096 133.58 336.096Z" fill="#EA4C81"/>
<path d="M205.81 337.016C190.55 337.016 176.2 332.566 176.2 317.836V310.316C183.6 313.696 191.91 314.916 199.47 314.916C208.08 314.916 213.52 313.226 213.52 308.936C213.52 297.886 170.46 307.246 170.46 270.276C170.46 247.566 188.59 235.136 212.31 235.136C232.71 235.136 247.21 243.726 247.21 258.146C247.21 266.896 240.11 272.566 229.38 272.566H223.49V269.496C223.49 262.136 220.32 256.456 211.86 256.456C205.36 256.456 200.98 259.836 200.98 265.356C200.98 284.226 243.89 270.726 243.89 305.706C243.88 326.736 226.21 337.016 205.81 337.016Z" fill="#EA4C81"/>
<path d="M256.43 360.796V273.806C256.43 259.686 259.6 259.686 282.42 259.686V272.266C288.31 263.676 297.08 258.766 307.8 258.766C327.44 258.766 335.9 273.806 335.9 294.666C335.9 317.526 322.3 337.016 301.75 337.016C293.74 337.016 287.09 334.716 282.41 329.656V360.806H256.43V360.796ZM297.98 279.786C289.22 279.786 283.17 288.836 283.17 301.266C283.17 308.016 285.74 315.536 294.5 315.536C304.02 315.536 309.01 305.566 309.01 295.746C309.01 287.456 306.29 279.786 297.98 279.786Z" fill="#EA4C81"/>
<path d="M346.78 335.476V273.796C346.78 259.676 349.95 259.676 372.77 259.676V274.716C378.51 264.126 385.77 258.756 393.32 258.756C400.27 258.756 402.08 263.816 400.57 284.376C383.35 280.536 372.77 284.836 372.77 308.926V335.466H346.78V335.476Z" fill="#EA4C81"/>
<path d="M476.12 320.136C476.12 332.866 458.74 337.016 444.84 337.016C421.57 337.016 405.71 322.746 405.71 295.436C405.71 274.566 420.52 258.766 444.39 258.766C468.11 258.766 480.8 273.646 480.8 296.356C480.8 304.176 474.3 305.716 468.86 305.716H434.41C437.43 313.696 444.08 317.686 455.56 317.686C462.96 317.686 469.31 316.456 476.11 314.156V320.136H476.12ZM432.61 290.676H451.04C453 290.676 453.76 288.986 453.76 287.766C453.76 281.166 450.74 275.796 443.94 275.796C436.69 275.796 433.21 280.706 432.61 290.676Z" fill="#EA4C81"/>
<path d="M515.41 291.286L529.92 290.056V289.596C529.32 278.706 520.55 276.866 512.09 276.866C505.14 276.866 498.79 279.016 493.05 281.466V275.026C493.05 262.446 511.18 258.766 523.12 258.766C540.34 258.766 554.55 264.136 556.36 289.456L558.93 326.276C559.69 336.096 547.9 336.096 532.49 336.096L531.89 325.666C525.54 332.876 517.38 337.016 507.71 337.016C493.05 337.016 486.1 325.506 486.1 314.306C486.09 301.726 493.8 293.136 515.41 291.286ZM519.64 319.366C526.14 319.366 530.37 311.846 530.67 304.326L519.94 305.706C515.71 306.316 513.6 309.236 513.6 312.606C513.59 316.456 515.86 319.366 519.64 319.366Z" fill="#EA4C81"/>
<path d="M600.47 258.766C608.18 258.766 614.98 261.216 619.81 266.436V236.666H645.8V321.976C645.8 336.096 642.63 336.096 619.81 336.096V323.056C613.61 331.956 604.55 337.016 593.67 337.016C574.63 337.016 566.32 321.976 566.32 301.116C566.33 278.246 579.92 258.766 600.47 258.766ZM604.25 315.996C613.01 315.996 619.06 306.946 619.06 294.516C619.06 287.766 616.49 280.246 607.73 280.246C598.21 280.246 593.22 290.216 593.22 300.036C593.22 308.326 595.94 315.996 604.25 315.996Z" fill="#EA4C81"/>
<path d="M28.5 462.906H20.48C11.14 462.906 7.18999 459.016 7.18999 449.166V388.226H0C0 385.676 0.119998 384.576 1.56 384.576H28.87C49.59 384.576 66.6 394.916 66.6 420.586C66.59 447.706 48.98 462.906 28.5 462.906ZM10.78 388.226V448.926C10.78 455.986 13.53 459.266 20.72 459.266H28.39C46.72 459.266 62.76 445.886 62.76 420.586C62.76 397.106 47.19 388.226 28.39 388.226H10.78V388.226Z" fill="#616160"/>
<path d="M85.4 388.586C83.12 388.586 82.04 387.246 82.04 385.056C82.04 382.986 83.12 381.656 85.4 381.656C87.55 381.656 88.63 382.996 88.63 385.056C88.63 387.246 87.55 388.586 85.4 388.586ZM83.48 462.906V407.316C83.48 405.366 83.96 405.246 86.95 405.246V462.906H83.48V462.906Z" fill="#616160"/>
<path d="M134.26 403.666C134.26 405.126 134.74 406.216 135.82 407.316C140.97 410.476 144.08 415.836 144.08 422.646C144.08 433.716 134.98 441.016 123.84 441.016H123.72C114.02 441.256 109.11 443.696 109.11 448.076C109.11 452.086 112.47 454.766 119.41 454.766H129.35C139.53 454.766 148.27 457.316 148.27 467.046C148.27 479.206 134.86 484.196 122.4 484.196C110.66 484.196 100.36 479.816 100.36 469.596C100.36 463.146 104.91 458.766 111.74 456.826C108.03 455.366 105.87 452.566 105.87 448.556C105.87 443.806 109.46 441.016 115.57 439.676C108.5 437.126 103.59 431.166 103.59 422.646C103.59 411.216 111.85 404.156 123.83 404.156C126.94 404.156 129.82 404.766 132.33 405.616C131.97 404.886 131.85 403.916 131.85 402.936C131.85 394.056 141.55 390.776 148.86 390.776C150.3 390.776 150.54 391.746 150.54 394.426C142.88 394.186 134.26 397.346 134.26 403.666ZM119.29 457.926C109.59 458.166 103.84 462.916 103.84 469.236C103.84 477.626 112.58 481.276 122.64 481.276C133.78 481.276 144.68 477.136 144.68 467.406C144.68 459.866 137.25 457.916 128.75 457.916H119.29V457.926ZM123.84 407.436C113.66 407.436 107.07 413.276 107.07 422.766C107.07 432.376 114.37 438.096 123.84 438.096C133.31 438.096 140.73 431.776 140.73 422.766C140.73 413.886 134.14 407.436 123.84 407.436Z" fill="#616160"/>
<path d="M164.2 388.586C161.92 388.586 160.85 387.246 160.85 385.056C160.85 382.986 161.93 381.656 164.2 381.656C166.36 381.656 167.43 382.996 167.43 385.056C167.43 387.246 166.36 388.586 164.2 388.586ZM162.29 462.906V407.316C162.29 405.366 162.77 405.246 165.76 405.246V462.906H162.29V462.906Z" fill="#616160"/>
<path d="M191.99 408.776V440.036C191.99 452.566 194.5 460.716 206 460.716C210.07 460.716 214.02 459.746 217.5 457.796V459.256C217.5 462.296 210.43 464.126 205.04 464.126C192.58 464.126 188.51 455.856 188.51 440.776V408.786L180.25 407.566C180.25 406.956 180.49 405.866 180.97 405.376H188.52V392.966C188.52 391.146 189 391.016 191.99 391.016V405.366H215.7C217.14 405.366 217.26 406.336 217.26 408.776H191.99V408.776Z" fill="#616160"/>
<path d="M247.44 431.526L266 429.336L265.64 423.496C264.8 411.576 257.26 407.566 248.27 407.566C242.16 407.566 237.13 409.146 232.34 411.706V410.366C232.34 407.566 241.32 404.166 249.35 404.166C258.81 404.166 268.15 408.176 269.11 423.016L271.62 461.086C271.74 462.906 271.02 463.026 268.15 463.026L266.71 441.736C263 455.966 254.49 464.116 243.35 464.116C233.05 464.116 227.66 456.576 227.66 447.936C227.68 438.576 234.03 433.226 247.44 431.526ZM244.33 461.086C255.71 461.086 264.81 449.656 266.01 432.256L247.93 434.566C236.79 435.906 231.64 440.286 231.64 447.826C231.63 455.246 236.06 461.086 244.33 461.086Z" fill="#616160"/>
<path d="M289.6 462.906V382.136C289.6 380.306 290.08 380.186 293.07 380.186V462.896H289.6V462.906Z" fill="#616160"/>
<path d="M36.9202 198.206C55.9685 198.206 71.4102 182.765 71.4102 163.716C71.4102 144.668 55.9685 129.226 36.9202 129.226C17.8719 129.226 2.43018 144.668 2.43018 163.716C2.43018 182.765 17.8719 198.206 36.9202 198.206Z" fill="#EA4C81"/>
<path d="M66.1599 242.516V335.476H54.4199C28.5999 335.476 7.66992 323.246 7.66992 308.156V215.186H19.3899C45.2199 215.186 66.1599 227.426 66.1599 242.516Z" fill="#EA4C81"/>
<path d="M141.18 108.696C139.67 126.336 131.14 146.776 119.12 164.186C110.51 176.656 100.1 187.566 89.1802 194.776C80.5702 200.466 72.7202 203.126 66.1602 203.046C81.1002 184.236 92.1402 160.226 93.8702 139.926C95.6102 119.626 87.6202 108.176 74.2902 108.036C81.6502 98.7762 89.9502 90.7662 98.5602 85.0862C109.47 77.8762 119.15 75.5262 126.53 77.4362C136.85 80.1062 142.69 91.0562 141.18 108.696Z" fill="#616160"/>
<path d="M122.17 70.5963C129.57 62.8563 137.48 56.1663 145.55 51.0963C159.09 42.5963 170.92 39.9863 179.82 42.4963C192.22 46.0063 198.87 59.4963 196.33 80.9563C193.79 102.406 182.61 127.096 167.31 147.996C156.34 162.976 143.27 175.996 129.73 184.496C121.66 189.566 114.19 192.536 107.58 193.576C129.89 170.226 147.51 137.196 150.79 109.536C154.07 81.8763 142.08 67.4463 122.17 70.5963Z" fill="#FCBD12"/>
<path d="M263.38 47.6762C256.77 91.6562 219.47 146.396 180.04 169.976C170.22 175.846 161.2 179.226 153.28 180.316C180.77 152.906 203.04 113.816 208 80.7862C212.96 47.7662 199.2 30.2062 175.33 33.5062C184.44 24.4162 194.13 16.6063 203.95 10.7363C243.39 -12.8337 269.99 3.69622 263.38 47.6762Z" fill="#2E62AC"/>
</svg>
