<svg width="200" height="121" viewBox="0 0 200 121" fill="none" xmlns="http://www.w3.org/2000/svg">
<g clip-path="url(#clip0)">
<path d="M56.43 111.9C53.958 111.895 51.5864 110.922 49.8235 109.189C48.0607 107.456 47.0471 105.102 47 102.63C47.0025 101.399 47.2492 100.181 47.7258 99.0454C48.2023 97.9103 48.8992 96.881 49.7762 96.017C50.6532 95.153 51.6929 94.4716 52.835 94.0121C53.9771 93.5526 55.199 93.3241 56.43 93.34C58.3356 93.3057 60.2095 93.8307 61.82 94.85V93.5H66.08V111.5H61.82V110.29C60.1967 111.292 58.3372 111.848 56.43 111.9V111.9ZM51.27 102.63C51.3334 103.963 51.9022 105.222 52.8607 106.151C53.8192 107.08 55.0955 107.609 56.43 107.63C57.8 107.653 59.1258 107.145 60.1303 106.214C61.1348 105.282 61.7402 103.998 61.82 102.63C61.7608 101.271 61.1792 99.9868 60.1964 99.0458C59.2136 98.1049 57.9056 97.5797 56.545 97.5797C55.1844 97.5797 53.8764 98.1049 52.8936 99.0458C51.9108 99.9868 51.3292 101.271 51.27 102.63ZM77.09 111.93C74.6129 111.925 72.2369 110.948 70.4732 109.208C68.7095 107.469 67.6993 105.107 67.66 102.63C67.6625 101.399 67.9092 100.181 68.3858 99.0454C68.8623 97.9103 69.5592 96.881 70.4362 96.017C71.3132 95.153 72.3529 94.4716 73.495 94.0121C74.6371 93.5526 75.859 93.3241 77.09 93.34C78.9955 93.3069 80.8691 93.8317 82.48 94.85V87.34H86.97V111.5H82.48V110.29C80.8561 111.291 78.997 111.847 77.09 111.9V111.93ZM71.93 102.63C71.9892 103.989 72.5708 105.273 73.5536 106.214C74.5364 107.155 75.8444 107.68 77.205 107.68C78.5656 107.68 79.8736 107.155 80.8564 106.214C81.8392 105.273 82.4208 103.989 82.48 102.63C82.4208 101.271 81.8392 99.9868 80.8564 99.0458C79.8736 98.1049 78.5656 97.5797 77.205 97.5797C75.8444 97.5797 74.5364 98.1049 73.5536 99.0458C72.5708 99.9868 71.9892 101.271 71.93 102.63V102.63ZM93.49 111.53H88.99V93.53H93.49V111.53ZM88.99 87.37H93.49V91.82H88.99V87.37ZM109.88 87.37H114.37V111.53H109.88V110.32C108.338 111.322 106.549 111.879 104.71 111.93C102.233 111.925 99.8569 110.948 98.0932 109.208C96.3295 107.469 95.3193 105.107 95.28 102.63C95.2825 101.399 95.5292 100.181 96.0058 99.0454C96.4823 97.9103 97.1792 96.881 98.0562 96.017C98.9332 95.153 99.9729 94.4716 101.115 94.0121C102.257 93.5526 103.479 93.3241 104.71 93.34C106.543 93.3369 108.337 93.8611 109.88 94.85V87.37ZM99.58 102.63C99.6453 103.957 100.211 105.211 101.162 106.138C102.114 107.066 103.381 107.599 104.71 107.63C106.057 107.646 107.355 107.13 108.324 106.194C109.292 105.257 109.851 103.977 109.88 102.63C109.891 101.247 109.352 99.9168 108.383 98.9306C107.414 97.9445 106.093 97.3832 104.71 97.37C103.347 97.4307 102.057 98.0083 101.105 98.9853C100.152 99.9623 99.6066 101.266 99.58 102.63ZM125.18 111.93C122.697 111.936 120.312 110.963 118.541 109.222C116.77 107.481 115.757 105.113 115.72 102.63C115.721 101.399 115.967 100.18 116.443 99.0438C116.919 97.9081 117.616 96.8782 118.493 96.014C119.371 95.1498 120.411 94.4684 121.553 94.0093C122.696 93.5503 123.919 93.3228 125.15 93.34C126.988 93.2732 128.798 93.8029 130.31 94.85V93.5H134.81V111.5H130.31V110.29C128.786 111.322 126.991 111.882 125.15 111.9L125.18 111.93ZM120.21 102.63C120.276 103.964 120.847 105.223 121.807 106.152C122.767 107.08 124.044 107.609 125.38 107.63C126.689 107.596 127.934 107.057 128.853 106.124C129.773 105.192 130.295 103.939 130.31 102.63C130.335 101.284 129.834 99.9813 128.913 98.999C127.992 98.0167 126.725 97.4323 125.38 97.37C124.01 97.4208 122.71 97.994 121.749 98.9721C120.788 99.9501 120.237 101.259 120.21 102.63ZM144.68 111.93C149.18 111.93 152.77 110.12 152.77 105.76C152.77 103.23 150.98 101.52 148.06 100.81C145.14 100.1 141.58 100.17 141.58 98.25C141.81 97.04 142.93 96.74 144.72 96.74C147.42 96.74 147.42 98.15 147.64 99.16H152.14C151.69 95.73 149 93.31 144.5 93.31C139.78 93.31 137.09 95.83 137.09 99.06C137.066 99.9427 137.283 100.815 137.718 101.584C138.154 102.352 138.79 102.987 139.56 103.42C141.003 103.998 142.511 104.401 144.05 104.62C146.05 104.82 147.87 105.03 148.05 106.44C148.05 107.35 146.92 108.56 144.9 108.56C141.98 108.56 141.31 106.85 141.31 105.73H136.58C136.58 109.37 139.72 111.9 144.66 111.9L144.68 111.93ZM113.66 52.97C113.66 50.54 113.88 48.32 113.88 45.59C113.88 30.93 107.36 15.77 100.18 9C92.81 15.77 86.52 30.93 86.52 45.63C86.4359 48.0987 86.5866 50.5698 86.97 53.01L113.66 52.97ZM84.46 52.97C83.1873 50.9428 81.7597 49.017 80.19 47.21C71.19 36.69 57.29 30.21 47.85 29.62C47.18 36.39 49.2 44.62 53.47 52.97H84.46ZM100.22 82.38C102.884 79.6227 105.082 76.4515 106.73 72.99H93.49C95.73 76.99 97.75 80.16 100.22 82.38ZM92.81 81.78C92.81 79.46 92.81 76.32 92.59 72.99H71.25C78.66 78.55 86.97 81.37 92.81 81.78ZM152.81 29.62C143.16 30.23 129.46 36.69 120.47 47.21C118.838 48.9635 117.409 50.8957 116.21 52.97H146.97C151.24 44.58 153.48 36.39 152.81 29.62ZM129.2 72.99H108.09C107.555 75.888 107.323 78.834 107.4 81.78C113.7 81.37 121.78 78.55 129.2 72.99V72.99ZM138.58 65.3H61.82C62.8989 66.7275 64.1828 67.9877 65.63 69.04H134.35C135.976 68.061 137.409 66.7936 138.58 65.3V65.3ZM144.87 56.91C144.105 58.4257 143.121 59.8207 141.95 61.05H58.22C57.2252 59.7466 56.3421 58.3617 55.58 56.91" fill="#292320"/>
<path d="M149.85 87.63C149.333 87.6296 148.836 87.8293 148.463 88.1872C148.09 88.5452 147.871 89.0336 147.85 89.55C147.853 89.8082 147.907 90.0633 148.009 90.3003C148.111 90.5374 148.26 90.7516 148.446 90.9304C148.633 91.1092 148.853 91.2491 149.094 91.3417C149.335 91.4344 149.592 91.478 149.85 91.47C150.341 91.4467 150.803 91.2332 151.139 90.8748C151.475 90.5164 151.658 90.0412 151.65 89.55C151.633 89.0664 151.441 88.6053 151.11 88.2522C150.779 87.8992 150.332 87.6781 149.85 87.63ZM149.85 91.78C149.545 91.8004 149.24 91.7581 148.952 91.6555C148.664 91.5529 148.401 91.3924 148.178 91.1838C147.955 90.9752 147.777 90.7229 147.655 90.4428C147.534 90.1626 147.471 89.8604 147.471 89.555C147.471 89.2496 147.534 88.9474 147.655 88.6672C147.777 88.3871 147.955 88.1349 148.178 87.9262C148.401 87.7176 148.664 87.5571 148.952 87.4545C149.24 87.3519 149.545 87.3096 149.85 87.33C150.155 87.3096 150.46 87.3519 150.748 87.4545C151.036 87.5571 151.299 87.7176 151.522 87.9262C151.745 88.1349 151.923 88.3871 152.045 88.6672C152.167 88.9474 152.229 89.2496 152.229 89.555C152.229 89.8604 152.167 90.1626 152.045 90.4428C151.923 90.7229 151.745 90.9752 151.522 91.1838C151.299 91.3924 151.036 91.5529 150.748 91.6555C150.46 91.7581 150.155 91.8004 149.85 91.78Z" fill="#292320"/>
<path d="M149.85 88.63H149.4V89.54H149.85C149.913 89.5362 149.975 89.5199 150.032 89.4922C150.088 89.4645 150.139 89.4258 150.181 89.3785C150.223 89.3311 150.255 89.2759 150.275 89.2161C150.296 89.1563 150.304 89.0931 150.3 89.03C150.286 88.9204 150.232 88.8196 150.15 88.7461C150.067 88.6727 149.961 88.6315 149.85 88.63V88.63ZM150.3 90.75L149.85 89.75H149.4V90.75H148.96V88.35H149.85C150.3 88.35 150.75 88.65 150.75 89.05C150.75 89.45 150.52 89.66 150.07 89.76L150.75 90.76" fill="#292320"/>
</g>
<defs>
<clipPath id="clip0">
<rect width="105.89" height="102.91" fill="white" transform="translate(47 9)"/>
</clipPath>
</defs>
</svg>
