<svg width="200" height="121" viewBox="0 0 200 121" fill="none" xmlns="http://www.w3.org/2000/svg">
<g clip-path="url(#clip0)">
<path d="M166.28 87.87H160.48C160.395 87.1373 160.103 86.4438 159.64 85.87C158.755 85.1602 157.629 84.823 156.5 84.93C155.447 84.8256 154.39 85.0793 153.5 85.65C153.286 85.8278 153.115 86.0513 152.999 86.304C152.883 86.5566 152.825 86.832 152.83 87.11C152.83 87.99 154.05 88.69 156.47 89.23C158.496 89.6357 160.499 90.1498 162.47 90.77C162.79 90.89 163.07 90.99 163.27 91.09C165.73 92.25 166.95 94.02 166.95 96.37C167.021 97.6543 166.721 98.9318 166.086 100.051C165.452 101.169 164.509 102.082 163.37 102.68C163.07 102.84 162.79 102.98 162.47 103.12C160.769 103.813 158.946 104.153 157.11 104.12C154.585 104.222 152.076 103.668 149.83 102.51C148.738 101.91 147.829 101.025 147.2 99.95C146.599 98.8398 146.299 97.5919 146.33 96.33H152.41C152.386 96.794 152.476 97.2569 152.671 97.6785C152.866 98.1002 153.161 98.4679 153.53 98.75C154.661 99.4458 155.987 99.7579 157.31 99.64C158.377 99.7166 159.438 99.4197 160.31 98.8C160.541 98.6256 160.73 98.4008 160.862 98.1426C160.993 97.8845 161.065 97.5998 161.07 97.31C161.07 96.37 159.87 95.64 157.49 95.12C155.201 94.708 152.952 94.0957 150.77 93.29C149.684 92.8876 148.75 92.1574 148.098 91.2006C147.446 90.2438 147.108 89.1078 147.13 87.95C147.076 86.0975 147.76 84.2995 149.03 82.95C150.63 81.25 153.03 80.41 156.21 80.41C158.366 80.3259 160.515 80.7079 162.51 81.53C162.643 81.5846 162.77 81.6515 162.89 81.73C163.965 82.2861 164.857 83.1401 165.46 84.19C166.051 85.3235 166.334 86.5927 166.28 87.87V87.87Z" fill="#292320"/>
<path d="M163.18 73.71C163.187 73.6039 163.159 73.4984 163.1 73.41C163.042 73.3123 162.949 73.2407 162.84 73.21L162.46 73.15H161.54V74.27H162.46C162.653 74.2788 162.843 74.2224 163 74.11C163.058 74.0614 163.105 74.0001 163.136 73.9308C163.167 73.8615 163.182 73.786 163.18 73.71ZM163.66 73.11C163.778 73.2651 163.841 73.455 163.84 73.65C163.841 73.784 163.815 73.9168 163.763 74.0405C163.711 74.1641 163.636 74.2762 163.54 74.37C163.332 74.5772 163.053 74.6986 162.76 74.71C162.878 74.7558 162.987 74.8236 163.08 74.91L163.64 75.65L164.08 76.39H163.36L163.02 75.79C162.872 75.4985 162.683 75.2292 162.46 74.99L162.38 74.93L161.9 74.79H161.54V76.41H160.94V72.63H162.24H162.46C162.704 72.6218 162.947 72.6557 163.18 72.73C163.381 72.7935 163.552 72.9287 163.66 73.11V73.11Z" fill="#292320"/>
<path d="M165.36 74.47C165.365 73.9583 165.234 73.4544 164.98 73.01C164.727 72.5569 164.353 72.183 163.9 71.93C163.464 71.6906 162.977 71.5602 162.48 71.55V71.55C161.983 71.5602 161.496 71.6906 161.06 71.93C160.607 72.183 160.233 72.5569 159.98 73.01C159.718 73.4484 159.58 73.9495 159.58 74.46C159.58 74.9705 159.718 75.4716 159.98 75.91C160.226 76.3563 160.594 76.7238 161.04 76.97C161.478 77.2212 161.975 77.3523 162.48 77.35V77.35C162.985 77.3523 163.482 77.2212 163.92 76.97C164.366 76.7238 164.734 76.3563 164.98 75.91C165.231 75.4718 165.362 74.9751 165.36 74.47V74.47ZM165.94 74.47C165.941 75.0739 165.782 75.6673 165.48 76.19C165.195 76.7383 164.748 77.1853 164.2 77.47C163.678 77.7748 163.084 77.9336 162.48 77.93V77.93C161.876 77.9336 161.282 77.7748 160.76 77.47C160.212 77.1853 159.765 76.7383 159.48 76.19C159.177 75.6673 159.019 75.0739 159.02 74.47C159.014 73.8528 159.172 73.2451 159.48 72.71C159.78 72.1662 160.232 71.7215 160.78 71.43C161.303 71.1457 161.885 70.9881 162.48 70.97C163.076 70.9785 163.661 71.1367 164.18 71.43C164.732 71.7161 165.185 72.1622 165.48 72.71C165.788 73.2451 165.946 73.8528 165.94 74.47Z" fill="#292320"/>
<path d="M131.91 46.2L148.34 73.57H131.91H121.95L106.27 47.42L94.39 27.64L106.27 20.5L113.75 16L131.91 46.2Z" fill="#292320"/>
<path d="M118.19 92.57V103.8H112.73V102.55C110.829 103.797 108.604 104.461 106.33 104.46H106.27C103.178 104.37 100.242 103.079 98.0863 100.86C95.9306 98.6406 94.7248 95.6687 94.7248 92.575C94.7248 89.4813 95.9306 86.5094 98.0863 84.2903C100.242 82.0712 103.178 80.7797 106.27 80.69H106.33C108.602 80.6901 110.826 81.3501 112.73 82.59V73.59H118.19V92.57ZM112.73 93.81C112.73 93.81 112.83 92.89 112.83 92.41C112.809 92.0481 112.769 91.6876 112.71 91.33C112.419 89.8455 111.621 88.5079 110.454 87.5452C109.288 86.5824 107.823 86.054 106.31 86.05H106.25C104.518 86.05 102.857 86.738 101.633 87.9626C100.408 89.1872 99.72 90.8481 99.72 92.58C99.72 94.3119 100.408 95.9728 101.633 97.1974C102.857 98.422 104.518 99.11 106.25 99.11H106.31C107.828 99.1059 109.298 98.5753 110.468 97.6089C111.639 96.6424 112.438 95.2998 112.73 93.81V93.81Z" fill="#292320"/>
<path d="M83.58 92.57V103.8H78.12V102.55C76.2186 103.797 73.994 104.461 71.72 104.46H71.66C68.5676 104.37 65.6319 103.079 63.4763 100.86C61.3206 98.6406 60.1148 95.6687 60.1148 92.575C60.1148 89.4813 61.3206 86.5094 63.4763 84.2903C65.6319 82.0712 68.5676 80.7797 71.66 80.69H71.72C73.9924 80.6901 76.2158 81.3501 78.12 82.59V73.59H83.58V92.57ZM78.12 93.81C78.12 93.81 78.23 92.89 78.23 92.41C78.23 92.08 78.12 91.33 78.12 91.33C77.8286 89.8455 77.0315 88.5079 75.8645 87.5452C74.6975 86.5824 73.2329 86.054 71.72 86.05H71.66C69.9282 86.05 68.2672 86.738 67.0426 87.9626C65.818 89.1872 65.13 90.8481 65.13 92.58C65.13 94.3119 65.818 95.9728 67.0426 97.1974C68.2672 98.422 69.9282 99.11 71.66 99.11H71.72C73.2347 99.1012 74.6996 98.5686 75.8662 97.6026C77.0328 96.6365 77.8291 95.2965 78.12 93.81Z" fill="#292320"/>
<path d="M106.27 62.8L112.71 73.57H106.27H86.35L71.7 49.2L71.07 48.14L71.7 47.77L90.45 36.48L106.27 62.8Z" fill="#292320"/>
<path d="M92.31 80.69H86.37V103.79H92.31V80.69Z" fill="#292320"/>
<path d="M92.31 73.69H86.37V78.91H92.31V73.69Z" fill="#292320"/>
<path d="M71.7 64.56L77.11 73.57H71.7H50.72L47.76 68.63L67.14 56.99L71.7 64.56Z" fill="#292320"/>
<path d="M57.74 92.57V103.8H52.28V102.55C50.3628 103.803 48.1205 104.467 45.83 104.46V104.46C42.7376 104.37 39.8019 103.079 37.6463 100.86C35.4906 98.6406 34.2848 95.6687 34.2848 92.575C34.2848 89.4813 35.4906 86.5094 37.6463 84.2903C39.8019 82.0712 42.7376 80.7797 45.83 80.69V80.69C48.1086 80.6902 50.3383 81.3501 52.25 82.59V81.29H57.71L57.74 92.57ZM52.28 93.81C52.28 93.81 52.39 92.87 52.39 92.45C52.39 92.03 52.28 91.33 52.28 91.33C51.9851 89.8379 51.1802 88.495 50.0033 87.5316C48.8264 86.5682 47.3509 86.0444 45.83 86.05V86.05C44.0981 86.05 42.4372 86.738 41.2126 87.9626C39.988 89.1872 39.3 90.8481 39.3 92.58C39.3 94.3119 39.988 95.9728 41.2126 97.1974C42.4372 98.422 44.0981 99.11 45.83 99.11V99.11C47.3532 99.1128 48.83 98.5855 50.0069 97.6184C51.1838 96.6514 51.9874 95.3049 52.28 93.81V93.81Z" fill="#292320"/>
<path d="M143.77 92.57V103.8H138.32V102.55C136.407 103.796 134.173 104.46 131.89 104.46H131.83C128.738 104.37 125.802 103.079 123.646 100.86C121.491 98.6406 120.285 95.6687 120.285 92.575C120.285 89.4813 121.491 86.5094 123.646 84.2903C125.802 82.0712 128.738 80.7797 131.83 80.69H131.89C134.171 80.6917 136.404 81.3514 138.32 82.59V81.29H143.77V92.57ZM138.32 93.81C138.32 93.81 138.43 92.87 138.43 92.45C138.43 92.03 138.32 91.33 138.32 91.33C138.022 89.843 137.219 88.5049 136.047 87.5425C134.875 86.5801 133.406 86.0528 131.89 86.05H131.83C130.098 86.05 128.437 86.738 127.213 87.9626C125.988 89.1872 125.3 90.8481 125.3 92.58C125.3 94.3119 125.988 95.9728 127.213 97.1974C128.437 98.422 130.098 99.11 131.83 99.11H131.89C133.409 99.1044 134.879 98.5736 136.051 97.6075C137.223 96.6415 138.025 95.2998 138.32 93.81V93.81Z" fill="#292320"/>
</g>
<defs>
<clipPath id="clip0">
<rect width="132.94" height="88.45" fill="white" transform="translate(34 16)"/>
</clipPath>
</defs>
</svg>
