<svg width="174" height="106" viewBox="0 0 174 106" fill="none" xmlns="http://www.w3.org/2000/svg">
<g clip-path="url(#clip0)">
<path d="M73.1301 40.3939V40.5143L72.9404 41.2625H69.7239L69.9137 40.5143V40.4111C69.9197 40.3858 69.919 40.3597 69.9117 40.3347C69.9043 40.3096 69.8906 40.2864 69.8714 40.2665C69.8522 40.2467 69.8281 40.2309 69.8008 40.2202C69.7736 40.2094 69.7438 40.2042 69.7139 40.2047H68.8249C68.757 40.207 68.6918 40.2284 68.6395 40.2657C68.5871 40.303 68.5505 40.3541 68.5352 40.4111V40.5143L67.6661 44.0316V44.1348C67.6583 44.1596 67.6573 44.1855 67.6632 44.2106C67.6692 44.2357 67.6819 44.2593 67.7004 44.2794C67.7189 44.2995 67.7426 44.3155 67.7696 44.3263C67.7966 44.337 67.8262 44.3422 67.8559 44.3412H68.7449C68.8128 44.339 68.878 44.3175 68.9303 44.2802C68.9827 44.2429 69.0193 44.1918 69.0346 44.1348V44.0316L69.2144 43.2835H72.4309L72.2411 44.0316V44.1606C72.1024 44.8034 71.7049 45.3835 71.1184 45.7988C70.5318 46.2141 69.794 46.438 69.0346 46.431H66.5174C66.1849 46.4581 65.8499 46.413 65.5429 46.2998C65.2359 46.1866 64.9668 46.009 64.7601 45.7831C64.5535 45.5573 64.4158 45.2905 64.3598 45.007C64.3039 44.7236 64.3313 44.4326 64.4396 44.1606V44.0316L65.3087 40.5143V40.3939C65.4453 39.7495 65.842 39.1674 66.4287 38.7504C67.0154 38.3334 67.7544 38.1083 68.5152 38.1149H71.0025C71.34 38.0792 71.6826 38.1183 71.9977 38.2285C72.3128 38.3387 72.5901 38.5163 72.8031 38.7445C73.0162 38.9727 73.1581 39.244 73.2153 39.5327C73.2725 39.8213 73.2432 40.1177 73.1301 40.3939V40.3939Z" fill="#13110C"/>
<path d="M80.1225 44.3412L79.6031 46.431H72.7905L73.3 44.3412L74.8383 38.1149H78.0448L76.5065 44.3412H80.1225Z" fill="#13110C"/>
<path d="M90.0417 38.1149L88.5733 44.0316V44.1606C88.4346 44.8034 88.037 45.3835 87.4505 45.7988C86.864 46.2141 86.1261 46.438 85.3668 46.431H82.8495C82.5163 46.4597 82.18 46.4157 81.8717 46.3032C81.5633 46.1907 81.2927 46.0132 81.0848 45.7871C80.877 45.5611 80.7384 45.2936 80.682 45.0094C80.6255 44.7252 80.653 44.4333 80.7618 44.1606V44.0316L82.2302 38.1149H85.4367L83.9683 44.0316V44.1349C83.9605 44.1596 83.9595 44.1855 83.9654 44.2106C83.9714 44.2357 83.9841 44.2593 84.0026 44.2794C84.0211 44.2995 84.0448 44.3155 84.0718 44.3263C84.0988 44.337 84.1284 44.3422 84.1581 44.3412H85.0471C85.115 44.339 85.1802 44.3175 85.2325 44.2802C85.2849 44.2429 85.3215 44.1919 85.3368 44.1349V44.0316L86.7952 38.1149H90.0417Z" fill="#13110C"/>
<path d="M98.5124 40.3939V40.4627V40.5143V40.6433C98.4155 40.9807 98.1948 41.2823 97.8831 41.5033L96.8143 42.2601L97.5035 43.0083C97.6075 43.1305 97.6799 43.2705 97.7161 43.4188C97.7523 43.5671 97.7513 43.7203 97.7133 43.8682V43.9973V44.0488V44.1262C97.5728 44.7683 97.1747 45.3474 96.5886 45.7624C96.0025 46.1774 95.2656 46.4019 94.5068 46.3966H89.3724L89.8918 44.3068L90.8907 40.1703L91.4102 38.0805H96.5446C96.874 38.0672 97.2022 38.1243 97.4997 38.2468C97.7973 38.3693 98.055 38.5533 98.2499 38.7824C98.4448 39.0114 98.5707 39.2785 98.6165 39.5597C98.6623 39.8409 98.6266 40.1275 98.5124 40.3939V40.3939ZM94.4169 44.0316L94.6666 42.9997C94.6766 42.9756 94.6794 42.9498 94.675 42.9245C94.6705 42.8993 94.6589 42.8754 94.6411 42.8549C94.6233 42.8345 94.5998 42.8182 94.5729 42.8074C94.546 42.7966 94.5164 42.7918 94.4868 42.7933H93.3481L92.9685 44.3412H94.1072C94.1747 44.3376 94.239 44.3157 94.2911 44.2786C94.3431 44.2415 94.3802 44.1912 94.3969 44.1348V44.0832L94.4169 44.0316ZM95.2959 40.4627V40.4111C95.3038 40.3864 95.3048 40.3604 95.2988 40.3353C95.2929 40.3102 95.2802 40.2866 95.2617 40.2666C95.2432 40.2465 95.2195 40.2304 95.1925 40.2196C95.1655 40.2089 95.1359 40.2038 95.1061 40.2047H93.9774L93.5978 41.7527H94.7266C94.7931 41.7509 94.8573 41.7307 94.9095 41.6951C94.9616 41.6594 94.9991 41.6103 95.0162 41.5549L95.276 40.5143L95.2959 40.4627Z" fill="#13110C"/>
<path d="M102.698 40.2047L102.318 41.7527H105.455L105.205 42.7933H102.099L101.839 43.8338L101.769 44.1348C101.759 44.1589 101.756 44.1847 101.761 44.21C101.765 44.2352 101.777 44.2591 101.794 44.2796C101.812 44.3 101.836 44.3163 101.863 44.3271C101.889 44.3379 101.919 44.3427 101.949 44.3412H105.335L104.816 46.431H100.48C100.305 46.4358 100.131 46.4056 99.9717 46.343C99.8123 46.2803 99.6719 46.1868 99.5613 46.0698L98.7222 45.1582C98.6182 45.0361 98.5464 44.8958 98.5119 44.7472C98.4774 44.5987 98.481 44.4455 98.5224 44.2982L98.6323 43.8425L98.892 42.8019L99.1517 41.7613L99.5313 40.2133L100.051 38.1235H106.873L106.354 40.2133L102.698 40.2047Z" fill="#13110C"/>
<path d="M14.8238 28.8442H10.2588L7.61169 33.5311H0L12.6462 13.7513H19.8983L22.7651 33.5311H15.1934L14.8238 28.8442ZM14.654 26.3846L14.3144 21.6546L11.6473 26.3846H14.654Z" fill="#D91C16"/>
<path d="M46.3594 19.1778L46.2795 19.4702L45.8999 21.0182C45.6813 21.8304 45.1496 22.5549 44.3915 23.0736L41.8643 24.8796L43.5125 26.677C43.7636 26.9696 43.9367 27.3062 44.0196 27.6629C44.1024 28.0197 44.093 28.3877 43.992 28.741L42.8133 33.5311H35.1716L36.8797 26.5996C36.8984 26.5417 36.9011 26.4808 36.8876 26.4219C36.8742 26.3629 36.845 26.3074 36.8023 26.2599C36.7597 26.2123 36.7048 26.1739 36.6419 26.1478C36.5791 26.1217 36.51 26.1085 36.4402 26.1094H33.7432L31.9052 33.5311H24.3334L29.2181 13.7513H41.4048C45.1607 13.7685 47.1585 15.9443 46.3594 19.1778ZM38.6778 19.4702L38.7377 19.2294C38.7569 19.1701 38.7594 19.1077 38.7449 19.0473C38.7304 18.987 38.6994 18.9305 38.6545 18.8825C38.6096 18.8346 38.552 18.7966 38.4865 18.7716C38.4211 18.7467 38.3496 18.7356 38.2782 18.7392H35.6011L34.3825 23.6498H37.0895C37.2482 23.6442 37.4004 23.5941 37.523 23.5072C37.6456 23.4202 37.7319 23.3012 37.7688 23.1682L38.6778 19.4702Z" fill="#D91C16"/>
<path d="M56.748 18.7736L55.839 22.4544H63.3109L62.7015 24.914H55.2297L54.6204 27.3736L54.4505 28.096C54.4299 28.1533 54.4255 28.2139 54.4375 28.273C54.4494 28.3321 54.4776 28.3879 54.5195 28.4358C54.5615 28.4836 54.6161 28.5222 54.6787 28.5484C54.7414 28.5745 54.8104 28.5875 54.8801 28.5862H62.8714L61.6527 33.5569H51.4039C50.987 33.5677 50.5729 33.4958 50.1935 33.3467C49.8142 33.1975 49.4798 32.9752 49.2163 32.6969L47.2184 30.5298C46.9657 30.2378 46.7907 29.9015 46.7061 29.5448C46.6215 29.188 46.6293 28.8196 46.729 28.4658L47.0087 27.3736L47.618 24.9054L48.2273 22.4458L49.1563 18.7736L50.385 13.8029H66.5773L65.3486 18.7736H56.748Z" fill="#D91C16"/>
<path d="M91.7698 13.7685L86.8851 33.5483H79.2734L74.7184 23.409L72.2211 33.5311H64.6095L69.4841 13.7513H77.1258L81.6908 23.8218L84.1181 13.7685H91.7698Z" fill="#D91C16"/>
<path d="M103.008 28.8442H98.4425L95.7954 33.5311H88.1837L100.83 13.7513H108.092L110.959 33.5311H103.347L103.008 28.8442ZM102.838 26.3846L102.498 21.6546L99.831 26.3846H102.838Z" fill="#D91C16"/>
<path d="M7.39193 40.2047L7.00235 41.7527H10.1989L9.94914 42.7933H6.75263L5.85361 46.431H2.64711L3.54613 42.7933L3.79586 41.7527L4.18543 40.2047L4.69487 38.1149H11.5274L11.008 40.2047H7.39193Z" fill="#13110C"/>
<path d="M20.128 38.1149L18.6696 44.0316V44.1606C18.5291 44.8027 18.131 45.3818 17.5449 45.7968C16.9588 46.2118 16.222 46.4363 15.4631 46.431H12.9658C12.6334 46.4581 12.2983 46.413 11.9914 46.2998C11.6844 46.1866 11.4153 46.009 11.2086 45.7831C11.0019 45.5573 10.8643 45.2905 10.8083 45.007C10.7523 44.7236 10.7798 44.4326 10.8881 44.1606V44.0316L12.3465 38.1149H15.553L14.0946 44.0316V44.1348C14.0868 44.1596 14.0858 44.1855 14.0917 44.2106C14.0977 44.2357 14.1104 44.2593 14.1289 44.2794C14.1473 44.2995 14.1711 44.3155 14.1981 44.3263C14.2251 44.337 14.2547 44.3422 14.2844 44.3412H15.1934C15.2608 44.3376 15.3252 44.3157 15.3772 44.2786C15.4293 44.2415 15.4663 44.1912 15.4831 44.1348V44.0316L16.9415 38.1149H20.128Z" fill="#13110C"/>
<path d="M27.9295 40.2047H25.642L24.1037 46.431H20.8972L22.4355 40.2047H20.188L20.7074 38.1149H28.4789L27.9295 40.2047Z" fill="#13110C"/>
<path d="M31.6255 40.2047L31.2459 41.7527H34.3925L34.1727 42.7933H30.9862L30.7364 43.8338L30.6565 44.1348C30.6487 44.1596 30.6477 44.1855 30.6536 44.2106C30.6596 44.2357 30.6723 44.2593 30.6908 44.2794C30.7093 44.2995 30.733 44.3155 30.76 44.3263C30.787 44.337 30.8166 44.3422 30.8463 44.3412H34.2326L33.7132 46.431H29.3779C29.2014 46.4351 29.0262 46.4048 28.8653 46.3422C28.7044 46.2797 28.562 46.1865 28.4489 46.0698L27.6198 45.1582C27.5141 45.0367 27.4406 44.8968 27.4043 44.7482C27.3681 44.5997 27.3701 44.4461 27.4101 44.2982L27.5299 43.8425L27.7797 42.8019L28.0394 41.7613L28.419 40.2133L28.9384 38.1235H35.7709L35.2515 40.2133L31.6255 40.2047Z" fill="#13110C"/>
<path d="M44.2117 40.3939V40.4627V40.5143V40.6433C44.1148 40.9807 43.8941 41.2823 43.5824 41.5033L42.5136 42.2601L43.2028 43.0083C43.3067 43.1305 43.3792 43.2705 43.4154 43.4188C43.4516 43.5671 43.4506 43.7203 43.4126 43.8683V43.9973V44.0488V44.1262C43.2739 44.769 42.8763 45.3491 42.2898 45.7644C41.7033 46.1797 40.9654 46.4036 40.2061 46.3966H34.9319L35.4513 44.3068L36.4502 40.1703L36.9696 38.0805H42.164C42.4999 38.055 42.8379 38.1031 43.1464 38.2204C43.455 38.3377 43.724 38.5204 43.9284 38.7513C44.1328 38.9822 44.266 39.254 44.3156 39.5412C44.3651 39.8284 44.3294 40.1218 44.2117 40.3939ZM40.1062 44.0316L40.3659 42.9997C40.3738 42.9749 40.3748 42.949 40.3688 42.9239C40.3629 42.8988 40.3501 42.8752 40.3317 42.8551C40.3132 42.835 40.2895 42.819 40.2625 42.8082C40.2354 42.7975 40.2059 42.7924 40.1761 42.7933H39.0374L38.6578 44.3412H39.7866C39.8545 44.339 39.9196 44.3175 39.9719 44.2802C40.0243 44.2429 40.0609 44.1919 40.0762 44.1349V44.0832L40.1062 44.0316ZM40.9852 40.4627V40.4111C40.9931 40.3864 40.9941 40.3604 40.9881 40.3353C40.9822 40.3102 40.9695 40.2866 40.951 40.2666C40.9325 40.2465 40.9088 40.2304 40.8818 40.2196C40.8548 40.2089 40.8252 40.2038 40.7955 40.2047H39.6767L39.2971 41.7527H40.4259C40.4933 41.7539 40.5592 41.7348 40.6121 41.6987C40.665 41.6626 40.7016 41.6117 40.7155 41.5549L40.9753 40.5143L40.9852 40.4627Z" fill="#13110C"/>
<path d="M52.6825 40.3939V40.5143L51.8134 44.0316V44.1606C51.6747 44.8034 51.2772 45.3835 50.6907 45.7988C50.1041 46.2141 49.3663 46.438 48.6069 46.431H46.0597C45.7264 46.4597 45.3902 46.4157 45.0818 46.3032C44.7734 46.1907 44.5029 46.0132 44.295 45.7871C44.0871 45.5611 43.9486 45.2936 43.8921 45.0094C43.8357 44.7252 43.8632 44.4333 43.972 44.1606V44.0316L44.831 40.5143V40.3939C44.9706 39.7315 45.3848 39.1353 45.9966 38.7161C46.6085 38.2969 47.3763 38.0832 48.1574 38.1149H50.6447C50.9751 38.0934 51.3065 38.143 51.6091 38.2593C51.9117 38.3755 52.176 38.5548 52.3781 38.7808C52.5803 39.0069 52.7139 39.2727 52.767 39.5542C52.8202 39.8358 52.7911 40.1244 52.6825 40.3939ZM49.456 40.5143V40.4111C49.4638 40.3864 49.4648 40.3604 49.4589 40.3353C49.4529 40.3102 49.4402 40.2866 49.4217 40.2666C49.4033 40.2465 49.3796 40.2304 49.3525 40.2196C49.3255 40.2089 49.2959 40.2038 49.2662 40.2047H48.3772C48.3093 40.2069 48.2441 40.2284 48.1918 40.2657C48.1394 40.303 48.1028 40.3541 48.0875 40.4111V40.5143L47.2184 44.0316V44.1348C47.2124 44.1601 47.2131 44.1862 47.2204 44.2113C47.2278 44.2363 47.2415 44.2596 47.2607 44.2794C47.2799 44.2992 47.304 44.3151 47.3313 44.3258C47.3585 44.3365 47.3883 44.3418 47.4182 44.3412H48.3072C48.3752 44.339 48.4403 44.3175 48.4926 44.2802C48.545 44.2429 48.5816 44.1919 48.5969 44.1348V44.0316L49.456 40.5143V40.5143Z" fill="#13110C"/>
<path d="M59.7448 44.3412L59.2253 46.431H52.3928L52.9122 44.3412L54.4505 38.1149H57.657L56.1487 44.3412H59.7448Z" fill="#13110C"/>
<path d="M148.368 51.29C144.308 48.7348 140.502 45.8928 136.99 42.7933C121.078 28.7496 123.245 6.73375 123.245 6.73375L137.14 1.88339C144.477 -0.670967 152.679 -0.670967 160.015 1.88339L173.91 6.73375C173.91 6.73375 176.018 28.7496 160.175 42.7933C156.661 45.8904 152.855 48.7323 148.798 51.29" fill="#D91C16"/>
<path d="M148.798 51.2728C152.855 48.7151 156.661 45.8732 160.175 42.7761C160.175 42.7761 153.572 35.0361 148.368 34.8125C143.164 34.5889 138.569 36.3433 137.909 36.9023C137.082 37.7321 136.39 38.655 135.852 39.6457C135.852 39.8865 133.854 39.6457 133.854 39.6457L136.98 42.7417C140.492 45.8412 144.298 48.6832 148.358 51.2384" fill="#F6CE00"/>
<path d="M153.143 95.012C152.537 96.6976 151.911 98.3574 151.265 99.9914C161.833 67.9739 161.544 40.4799 150.196 37.4527C138.848 34.4255 120.528 56.9315 108.172 88.4761C108.721 86.8163 109.301 85.1393 109.91 83.4623C122.217 49.3378 141.875 24.2604 153.802 27.451C165.729 30.6416 165.439 60.9133 153.143 95.012Z" fill="white"/>
<path d="M163.432 76.5136C162.273 79.7242 161.044 82.8431 159.746 85.8703C171.732 52.0726 170.604 21.904 157.098 18.3007C143.593 14.6973 122.816 39.0007 110.479 72.7038C111.398 69.5849 112.437 66.4316 113.596 63.2439C126.072 28.6808 147.279 3.68937 161.034 7.37014C174.789 11.0509 175.868 41.9935 163.432 76.5136Z" fill="#13110C"/>
</g>
<defs>
<clipPath id="clip0">
<rect width="174" height="100" fill="white"/>
</clipPath>
</defs>
</svg>
