<svg width="200" height="121" viewBox="0 0 200 121" fill="none" xmlns="http://www.w3.org/2000/svg">
<g clip-path="url(#clip0)">
<path d="M168.55 51.13C169.89 49.87 171.22 48.59 172.55 47.35C173.36 46.62 174.22 45.94 175.06 45.24L175.33 45.07C176.17 44.59 176.86 44.62 177.17 45.15C177.327 45.5302 177.351 45.952 177.238 46.3475C177.126 46.743 176.883 47.0891 176.55 47.33C173.695 49.2061 171.073 51.415 168.74 53.91C168.678 53.9762 168.631 54.0554 168.603 54.1419C168.576 54.2284 168.568 54.32 168.58 54.41C168.799 55.3455 169.093 56.2618 169.46 57.15C169.666 57.6446 170.039 58.051 170.514 58.2978C170.99 58.5447 171.537 58.6163 172.06 58.5C174.13 58.1768 176.115 57.446 177.9 56.35C180.09 55.08 182.18 53.65 184.31 52.29C184.562 52.1569 184.827 52.0497 185.1 51.97L185.26 52.18C185.103 52.4649 184.923 52.7359 184.72 52.99C181.09 56.61 177.11 59.67 171.98 60.86C171.009 61.1472 169.966 61.0651 169.052 60.6293C168.138 60.1936 167.418 59.4351 167.03 58.5C166.63 57.63 166.37 56.69 166.03 55.69C165.03 56.5 163.93 57.29 162.93 58.15C161.346 59.6347 159.488 60.7964 157.46 61.57C156.525 61.8741 155.542 62.0062 154.56 61.96C154.213 61.9481 153.873 61.8633 153.561 61.7111C153.249 61.5589 152.973 61.3427 152.751 61.0767C152.528 60.8106 152.364 60.5007 152.269 60.167C152.174 59.8333 152.151 59.4834 152.2 59.14C152.254 58.243 152.405 57.3545 152.65 56.49C153.513 53.7174 154.868 51.1228 156.65 48.83C156.951 48.4486 157.304 48.1119 157.7 47.83C158.028 47.6208 158.421 47.5398 158.805 47.6025C159.189 47.6652 159.536 47.8673 159.78 48.17C159.887 48.3064 159.965 48.4636 160.008 48.6316C160.051 48.7997 160.059 48.9749 160.031 49.1461C160.003 49.3173 159.939 49.4807 159.844 49.626C159.749 49.7713 159.625 49.8953 159.48 49.99C158.149 51.016 157.017 52.2767 156.14 53.71C155.247 55.0081 154.728 56.5268 154.64 58.1C154.63 58.378 154.65 58.6563 154.7 58.93C154.704 59.0502 154.735 59.168 154.79 59.2748C154.845 59.3816 154.924 59.4748 155.019 59.5476C155.115 59.6204 155.226 59.6709 155.344 59.6955C155.461 59.7202 155.583 59.7183 155.7 59.69C157.41 59.4639 159.034 58.8066 160.42 57.78C162.16 56.46 163.81 55.01 165.47 53.59C165.62 53.4226 165.702 53.2049 165.7 52.98C165.81 51.35 165.87 49.72 166 48.1C166.048 47.5208 166.201 46.955 166.45 46.43C166.633 46.0652 166.948 45.783 167.33 45.64C167.582 45.5621 167.853 45.5779 168.094 45.6845C168.334 45.7912 168.529 45.9814 168.64 46.22C168.876 46.7329 168.979 47.2968 168.94 47.86C168.83 48.94 168.56 50.01 168.35 51.08L168.55 51.13Z" fill="#292320"/>
<path d="M96.15 64.26C94.6665 65.7138 92.9535 66.9131 91.08 67.81C89.926 68.4083 88.6242 68.6617 87.33 68.54C86.9849 68.5168 86.6482 68.4234 86.3405 68.2655C86.0328 68.1076 85.7606 67.8885 85.5406 67.6216C85.3206 67.3548 85.1574 67.0458 85.061 66.7137C84.9646 66.3815 84.937 66.0332 84.98 65.69C85.034 64.793 85.1848 63.9045 85.43 63.04C86.2932 60.2674 87.6481 57.6728 89.43 55.38C89.7433 54.9802 90.118 54.6326 90.54 54.35C90.8647 54.1674 91.2434 54.1054 91.6094 54.175C91.9753 54.2445 92.3049 54.4411 92.54 54.73C92.6482 54.8715 92.7251 55.0343 92.7658 55.2077C92.8064 55.3811 92.8098 55.5611 92.7758 55.7359C92.7418 55.9107 92.6711 56.0763 92.5684 56.2218C92.4657 56.3673 92.3333 56.4894 92.18 56.58C90.8694 57.6298 89.7584 58.9068 88.9 60.35C88.0451 61.6211 87.5509 63.1003 87.47 64.63C87.4597 64.908 87.4799 65.1863 87.53 65.46C87.5322 65.5809 87.5618 65.6996 87.6165 65.8074C87.6712 65.9152 87.7496 66.0092 87.8458 66.0824C87.9421 66.1555 88.0536 66.2059 88.1721 66.2297C88.2906 66.2536 88.413 66.2502 88.53 66.22C90.2945 65.9469 91.9698 65.2617 93.42 64.22C94.19 63.68 94.93 63.08 95.65 62.47C95.8608 62.2693 96.01 62.0126 96.08 61.73C96.6644 59.2495 97.8988 56.9694 99.6563 55.124C101.414 53.2787 103.631 51.9346 106.08 51.23C106.553 51.0875 107.046 51.02 107.54 51.03C108.41 51.03 108.81 51.4 108.67 52.26C108.599 52.897 108.369 53.5057 108 54.03C106.709 55.6849 105.316 57.2579 103.83 58.74C102.452 60.0027 100.977 61.1562 99.42 62.19C99.1409 62.3632 98.9268 62.6238 98.811 62.9312C98.6953 63.2386 98.6844 63.5757 98.78 63.89C98.7794 64.2318 98.8964 64.5634 99.1112 64.8292C99.326 65.095 99.6257 65.2789 99.96 65.35C100.732 65.5052 101.528 65.5052 102.3 65.35C104.812 64.6534 107.182 63.5194 109.3 62C110.5 61.17 111.66 60.29 112.99 59.32C113.022 59.6526 113.022 59.9874 112.99 60.32C112.947 60.5104 112.85 60.6842 112.71 60.82C110.07 63.63 107.17 66.11 103.45 67.36C101.31 68.08 99.19 68.03 97.45 66.23C96.9661 65.6082 96.5314 64.9495 96.15 64.26V64.26ZM105.15 53.99C103.24 54.05 100.15 56.99 99.5 59.3C101.72 57.77 103.83 56.35 105.2 53.99H105.15Z" fill="#292320"/>
<path d="M130.44 58.13C130.89 57.51 131.32 56.87 131.79 56.27C133.4 54.21 135.02 52.15 136.67 50.11C137.051 49.6777 137.465 49.2764 137.91 48.91C138.156 48.7007 138.424 48.5196 138.71 48.37C138.964 48.2243 139.257 48.1623 139.547 48.1928C139.838 48.2234 140.112 48.3448 140.33 48.54C140.82 48.94 140.71 49.47 140.53 49.96C140.06 51.25 139.53 52.52 139.07 53.81C138.7 54.81 138.38 55.89 138.07 56.94C137.956 57.2021 137.92 57.4913 137.967 57.7732C138.013 58.0551 138.139 58.3178 138.33 58.53C138.702 58.3504 139.054 58.1326 139.38 57.88C140.14 57.19 140.84 56.44 141.58 55.72C142.063 55.2346 142.574 54.7772 143.11 54.35C143.426 54.1333 143.797 54.0118 144.18 54C145.06 54 145.29 54.35 145.18 55.23C144.97 56.54 144.74 57.84 144.57 59.16C144.544 59.6093 144.598 60.0597 144.73 60.49C144.748 60.7148 144.823 60.9315 144.947 61.1201C145.071 61.3087 145.24 61.4632 145.439 61.5696C145.638 61.6761 145.86 61.7309 146.086 61.7293C146.311 61.7276 146.533 61.6694 146.73 61.56C147.434 61.2542 148.105 60.8754 148.73 60.43C149.73 59.76 150.62 59.03 151.73 58.21C151.72 58.4655 151.673 58.7182 151.59 58.96C150.814 60.3185 149.797 61.5248 148.59 62.52C147.814 63.1382 146.884 63.5324 145.9 63.66C145.477 63.7533 145.038 63.7537 144.614 63.6611C144.191 63.5686 143.792 63.3853 143.446 63.1239C143.1 62.8625 142.815 62.5293 142.61 62.1471C142.405 61.7649 142.286 61.3428 142.26 60.91C142.194 60.1953 142.168 59.4776 142.18 58.76C141.35 59.43 140.47 60.18 139.54 60.87C139.135 61.181 138.678 61.4179 138.19 61.57C137.927 61.6934 137.638 61.7493 137.349 61.7324C137.059 61.7156 136.778 61.6266 136.532 61.4736C136.285 61.3205 136.081 61.1083 135.937 60.8562C135.794 60.604 135.716 60.32 135.71 60.03C135.612 58.8336 135.676 57.6294 135.9 56.45C136.18 55.12 136.69 53.84 136.99 52.45C136.09 53.62 135.11 54.75 134.29 55.97C132.79 58.17 131.4 60.44 129.93 62.66C129.479 63.287 128.978 63.8757 128.43 64.42C128.359 64.5089 128.271 64.5825 128.171 64.6365C128.071 64.6904 127.962 64.7235 127.849 64.7338C127.735 64.7441 127.621 64.7313 127.513 64.6963C127.405 64.6613 127.306 64.6047 127.22 64.53C126.78 64.2 126.4 63.9 126.6 63.21C127.5 60.1 128.38 56.99 129.22 53.86C129.46 52.96 129.55 52.01 129.7 51.08C129.85 50.15 130.37 49.97 131.12 50.42C131.43 50.551 131.679 50.7966 131.813 51.1057C131.947 51.4149 131.957 51.7638 131.84 52.08C131.4 53.87 130.93 55.66 130.48 57.44C130.48 57.66 130.37 57.88 130.32 58.1L130.44 58.13Z" fill="#292320"/>
<path d="M73.83 63.05C73.8578 63.3827 73.8578 63.7172 73.83 64.05C73.7789 64.2363 73.6787 64.4055 73.54 64.54C70.9 67.35 67.97 69.84 64.22 71.08C62.22 71.75 60.22 71.74 58.5 70.13C57.788 69.5349 57.2663 68.7439 56.9997 67.8551C56.733 66.9663 56.7331 66.0187 57 65.13C57.6368 62.713 58.8948 60.5046 60.6491 58.724C62.4033 56.9435 64.5927 55.6528 67 54.98C67.4125 54.8594 67.8402 54.7988 68.27 54.8C69.32 54.75 69.78 55.25 69.52 56.27C69.3424 56.9331 69.0551 57.5618 68.67 58.13C66.9302 60.5612 64.8057 62.6925 62.38 64.44C61.7226 64.9897 61.0313 65.4974 60.31 65.96C59.55 66.39 59.54 66.96 59.66 67.7C59.6712 68.0381 59.7987 68.362 60.0209 68.617C60.2432 68.8721 60.5466 69.0427 60.88 69.1C61.6326 69.2501 62.4074 69.2501 63.16 69.1C65.6754 68.3927 68.0454 67.2449 70.16 65.71C71.33 64.89 72.48 64.03 73.83 63.05ZM66 57.83C64.24 57.72 60.67 61.13 60.46 63.06C62.55 61.57 64.68 60.18 66 57.83Z" fill="#292320"/>
<path d="M117.9 53.65C117.4 54.31 116.98 54.93 116.48 55.48C116.05 55.9217 115.578 56.3203 115.07 56.67C114.969 56.7101 114.861 56.7256 114.753 56.7152C114.645 56.7047 114.541 56.6687 114.45 56.61C114.393 56.5147 114.357 56.4077 114.347 56.2969C114.336 56.1861 114.351 56.0743 114.39 55.97C114.61 55.43 114.94 54.97 115.13 54.4C115.57 53.13 116 51.86 116.35 50.56C116.56 49.81 116.7 49.56 117.5 49.51C118.3 49.46 118.5 49.61 118.84 50.3C119.189 51.0156 119.622 51.6871 120.13 52.3C120.691 52.856 121.061 53.5759 121.187 54.3559C121.313 55.1359 121.188 55.9357 120.83 56.64C120.57 57.22 120.27 57.8 119.96 58.36C119.27 59.62 118.55 60.87 117.86 62.12C117.711 62.3584 117.6 62.618 117.53 62.89C117.479 63.105 117.515 63.3313 117.63 63.52C117.72 63.63 118.04 63.63 118.21 63.52C118.854 63.2898 119.468 62.9843 120.04 62.61C121.92 61.18 123.74 59.68 125.6 58.23C125.87 58.02 126.46 57.71 126.51 57.78C126.84 58.17 126.51 58.52 126.27 58.84C124.444 61.2532 122.302 63.4093 119.9 65.25C119.139 65.7657 118.336 66.2172 117.5 66.6C115.59 67.54 113.88 65.41 114.27 63.94C114.499 63.0464 114.835 62.1836 115.27 61.37C116.02 59.95 116.91 58.6 117.69 57.19C117.986 56.6197 118.23 56.024 118.42 55.41C118.527 55.099 118.535 54.7623 118.442 54.4468C118.349 54.1313 118.159 53.8527 117.9 53.65V53.65Z" fill="#292320"/>
<path d="M85.08 35.19C84.4 34.8 83.94 35.02 83.86 35.79C83.4971 38.3765 82.8395 40.913 81.9 43.35C80.62 47.08 79.18 50.76 78.03 54.53C77.33 56.84 76.69 59.17 76.03 61.53C76.03 61.62 75.03 66.79 77.51 67.27C78.51 67.47 80.18 66.83 82.75 64.61C82.75 64.61 77.75 66.88 78.22 62.61C78.22 62.32 78.31 62.03 78.36 61.75C79.4922 55.9813 81.1974 50.34 83.45 44.91C84.19 42.97 84.83 40.99 85.45 39.01C85.6826 38.164 85.8695 37.3061 86.01 36.44C85.9592 36.175 85.8492 35.925 85.6881 35.7085C85.5271 35.4921 85.3192 35.3148 85.08 35.19V35.19Z" fill="#292320"/>
<path d="M94.24 53.05C95.3059 53.05 96.17 52.1859 96.17 51.12C96.17 50.0541 95.3059 49.19 94.24 49.19C93.1741 49.19 92.31 50.0541 92.31 51.12C92.31 52.1859 93.1741 53.05 94.24 53.05Z" fill="#292320"/>
<path d="M160.47 46.05C161.536 46.05 162.4 45.1859 162.4 44.12C162.4 43.0541 161.536 42.19 160.47 42.19C159.404 42.19 158.54 43.0541 158.54 44.12C158.54 45.1859 159.404 46.05 160.47 46.05Z" fill="#292320"/>
<path d="M46.14 59.43C45.7005 59.5307 45.2666 59.6542 44.84 59.8V59.8L46.14 59.43Z" fill="#292320"/>
<path d="M60.77 56.86L50.15 58.35C50.27 57.98 50.34 57.73 50.44 57.5C51.6733 54.6933 52.9067 51.8867 54.14 49.08C54.48 48.32 54.88 47.58 55.14 46.8C55.1958 46.5717 55.2013 46.334 55.156 46.1033C55.1108 45.8727 55.0159 45.6547 54.8779 45.4644C54.74 45.2741 54.5622 45.1161 54.3571 45.0014C54.152 44.8867 53.9243 44.8179 53.69 44.8C53.4535 44.7864 53.2191 44.8516 53.0236 44.9855C52.8282 45.1195 52.6827 45.3145 52.61 45.54C50.97 49.8667 49.3033 54.2 47.61 58.54C47.5343 58.7813 47.3699 58.985 47.15 59.11C46.79 59.25 46.43 59.37 46.06 59.48L44.75 59.88C44.355 60.0153 43.9678 60.1722 43.59 60.35C42.81 60.79 41.99 61.19 41.26 61.7C40.7373 62.0642 40.2864 62.5219 39.93 63.05C39.51 63.7 39.66 64.15 40.37 64.45C41.2568 64.8189 42.1692 65.1231 43.1 65.36C43.4 65.44 43.77 65.22 44.1 65.14C44.0058 64.8748 43.8781 64.6228 43.72 64.39C43.4 64.01 43.28 63.66 43.72 63.27C44.5956 62.498 45.6151 61.9067 46.72 61.53C45.83 63.67 44.96 65.7 44.15 67.76C43.7416 68.7539 43.4073 69.7767 43.15 70.82C43.0403 71.2965 43.1089 71.7966 43.3429 72.226C43.5769 72.6553 43.9601 72.984 44.42 73.15C44.88 73.34 45.36 73.34 45.61 72.88C45.8274 72.4472 45.9695 71.9805 46.03 71.5C46.6472 68.0791 47.6746 64.745 49.09 61.57C49.1642 61.3203 49.3048 61.0954 49.4968 60.9193C49.6887 60.7432 49.9249 60.6225 50.18 60.57C52.41 60.11 54.64 59.68 56.85 59.14C58.0242 58.8253 59.1766 58.4345 60.3 57.97C60.4206 57.9539 60.5349 57.9066 60.6317 57.8327C60.7285 57.7589 60.8043 57.6612 60.8518 57.5491C60.8992 57.4371 60.9166 57.3146 60.9023 57.1937C60.8879 57.0729 60.8423 56.9578 60.77 56.86V56.86Z" fill="#292320"/>
<path d="M36.83 60.04H36.69C35.58 60.24 34.48 60.5 33.33 60.74C33.33 60.43 33.33 60.2 33.33 59.97C33.53 56.41 33.68 52.85 33.95 49.3C33.9899 47.8226 34.2772 46.3624 34.8 44.98C35.5984 43.1317 35.6308 41.0421 34.89 39.17C34.7971 38.8472 34.6404 38.5464 34.4291 38.2853C34.2178 38.0242 33.9563 37.8082 33.66 37.65C33.467 37.5254 33.2469 37.4489 33.0183 37.4267C32.7896 37.4045 32.5589 37.4374 32.3456 37.5226C32.1322 37.6077 31.9423 37.7427 31.7917 37.9162C31.6411 38.0897 31.5343 38.2968 31.48 38.52C31.3 39.11 31.2 39.73 31.01 40.32C30.7604 41.1993 30.4531 42.0612 30.09 42.9C27.9 47.35 25.74 51.82 23.61 56.27C22.19 59.25 20.7767 62.25 19.37 65.27C19.0488 66.0224 18.4663 66.6334 17.73 66.99C17.2687 67.2215 16.8386 67.5104 16.45 67.85C15.62 68.55 15.61 68.99 16.45 69.72C16.5313 69.77 16.6019 69.8358 16.6576 69.9133C16.7133 69.9909 16.753 70.0788 16.7744 70.1718C16.7958 70.2649 16.7985 70.3613 16.7823 70.4554C16.7661 70.5495 16.7313 70.6395 16.68 70.72C16.3554 71.4679 15.9567 72.1815 15.49 72.85C14.8562 73.6919 14.453 74.6846 14.32 75.73C14.22 76.4 14.12 77.08 14.04 77.73C13.99 78.18 13.92 78.73 14.43 78.9C14.6561 78.9713 14.895 78.9922 15.13 78.9611C15.365 78.93 15.5903 78.8477 15.79 78.72C17.0615 77.6114 17.9388 76.12 18.29 74.47C18.4231 73.5096 18.627 72.5603 18.9 71.63C19.3309 70.421 20.027 69.3237 20.9372 68.4188C21.8473 67.5138 22.9485 66.824 24.16 66.4C25.93 65.68 27.74 65.06 29.53 64.4C29.98 64.24 30.45 64.12 31 63.95C31 66.2 32.48 75.25 32.75 77.35C33.15 80.35 33.75 81.9 34.18 84.57C34.33 85.57 35.23 86.82 36.12 86.38C37.41 85.75 37.2 83.81 36.61 82.51C36.0802 81.1029 35.6295 79.6674 35.26 78.21C34.2769 73.5476 33.5856 68.8285 33.19 64.08C33.1596 63.9412 33.1592 63.7974 33.1887 63.6584C33.2183 63.5193 33.2771 63.3882 33.3613 63.2737C33.4456 63.1592 33.5532 63.064 33.6771 62.9944C33.8011 62.9247 33.9384 62.8824 34.08 62.87C35.32 62.53 36.54 62.1 37.77 61.74C38.08 61.65 38.11 61.38 38.03 61.09C37.9485 60.8139 37.7856 60.5689 37.5626 60.3869C37.3396 60.2049 37.0668 60.0945 36.78 60.07L36.83 60.04ZM31.72 47.61C31.54 51.79 31.33 55.96 31.12 60.14C31.05 61.43 31.02 61.42 29.79 61.84L22.08 64.45C22.54 63.45 22.97 62.38 23.44 61.37C25.26 57.43 27.07 53.5 28.91 49.58C29.3205 48.7041 29.7813 47.8527 30.29 47.03C30.5834 46.6168 30.9185 46.2348 31.29 45.89L31.53 45.99C31.633 46.5246 31.6965 47.0661 31.72 47.61V47.61Z" fill="#292320"/>
</g>
<defs>
<clipPath id="clip0">
<rect width="171.28" height="51.48" fill="white" transform="translate(14 35)"/>
</clipPath>
</defs>
</svg>
