<svg width="200" height="121" viewBox="0 0 200 121" fill="none" xmlns="http://www.w3.org/2000/svg">
<g clip-path="url(#clip0)">
<path fill-rule="evenodd" clip-rule="evenodd" d="M47.3437 46.6782C49.2355 46.6791 51.0828 47.252 52.6431 48.3217C53.3768 48.86 54.0547 49.4705 54.6667 50.1441L54.7449 50.2223C55.9747 51.4298 50.9549 54.1242 51.1561 51.8322C51.0891 50.7925 51.0779 50.2111 50.7313 49.9764C49.7351 49.2118 48.521 48.7849 47.2655 48.7577C46.3127 48.7898 45.3825 49.0565 44.5575 49.5343C43.7325 50.0122 43.0382 50.6863 42.5363 51.4968V61.0558C43.036 61.8684 43.7297 62.5441 44.5552 63.0222C45.3807 63.5003 46.312 63.7658 47.2655 63.7949C48.042 63.7886 48.8068 63.6051 49.5015 63.2583C49.9482 62.8434 50.2367 62.2861 50.3176 61.6819C50.4294 58.9987 55.5723 61.9167 54.1524 63.1017L54.0294 63.2135C53.0097 64.1221 51.836 64.8414 50.5636 65.3377C49.5227 65.7249 48.4207 65.9218 47.3102 65.9191C44.8155 65.8341 42.4513 64.7832 40.7166 62.9883C38.9818 61.1934 38.0122 58.7949 38.0122 56.2987C38.0122 53.8025 38.5712 47.472 40.7166 49.609C41.3662 45.236 44.8155 46.7633 47.3102 46.6782H47.3437ZM74.2541 54.0906C74.4269 54.9634 74.5168 55.8506 74.5225 56.7403V65.3377C74.5196 65.4732 74.4645 65.6024 74.3687 65.6982C74.2728 65.7941 74.1437 65.8492 74.0082 65.852H69.7821C69.6466 65.8492 69.5175 65.7941 69.4216 65.6982C69.3258 65.6024 69.2707 65.4732 69.2678 65.3377V64.9017C67.9759 65.5445 66.5519 65.8776 65.1088 65.8744C62.6141 65.7893 60.25 64.7385 58.5152 62.9436C56.7805 61.1487 55.8108 58.7501 55.8108 56.254C55.8108 53.7578 56.7805 51.3592 58.5152 49.5643C60.25 47.7694 62.6141 46.7186 65.1088 46.6335C66.4109 46.6347 67.6982 46.9089 68.8877 47.4385C70.2531 48.0313 71.4545 48.946 72.389 50.1045C73.3236 51.263 73.9636 52.6308 74.2541 54.0906ZM69.1896 60.5303V50.4012C67.4008 48.8136 62.8393 48.1652 60.5809 50.759V61.0111C60.7806 61.6158 61.1339 62.1584 61.6062 62.5856C62.0785 63.0128 62.6536 63.3101 63.2753 63.4483C64.1586 63.7613 65.1116 63.8225 66.0277 63.625C66.9437 63.4276 67.7869 62.9793 68.4629 62.3303C68.9299 61.8368 69.1969 61.1873 69.2119 60.508L69.1896 60.5303ZM75.2715 56.7403V73.2532H80.6156V64.9129C81.8988 65.5457 83.3103 65.8746 84.741 65.8744C87.2358 65.7893 89.5999 64.7385 91.3346 62.9436C93.0694 61.1487 94.039 58.7501 94.039 56.254C94.039 53.7578 93.0694 51.3592 91.3346 49.5643C89.5999 47.7694 87.2358 46.7186 84.741 46.6335C83.0089 46.6456 81.314 47.137 79.8442 48.0534C78.3812 48.9653 77.1927 50.2568 76.4052 51.7903C75.6178 53.3239 75.2608 55.0423 75.3721 56.7626L75.2715 56.7403ZM80.582 60.508V50.4012C82.3709 48.8136 86.9323 48.1652 89.1907 50.759V61.0111C89.0293 61.6822 88.6327 62.2733 88.0727 62.6769C87.112 63.4135 85.9264 63.7957 84.7164 63.7591C83.5063 63.7224 82.3461 63.2691 81.4317 62.4757C81.1672 62.224 80.955 61.9227 80.8073 61.5888C80.6596 61.255 80.5792 60.8953 80.5709 60.5303L80.582 60.508ZM112.445 62.1626C111.566 63.3081 110.435 64.2364 109.14 64.876C107.845 65.5157 106.421 65.8496 104.977 65.852H104.653C103.169 65.8486 101.708 65.4968 100.385 64.8249C99.0626 64.153 97.9165 63.1798 97.0391 61.9837C95.7635 60.2732 95.0932 58.187 95.1337 56.0536C95.1741 53.9202 95.9231 51.8609 97.2627 50.2C98.1509 49.0957 99.2765 48.2056 100.556 47.596C101.835 46.9863 103.236 46.6726 104.653 46.6782H104.977C106.3 46.6803 107.609 46.9612 108.816 47.5025C110.024 48.0437 111.104 48.8333 111.987 49.8198C113.52 51.4992 114.408 53.6682 114.492 55.9407C114.576 58.2132 113.85 60.4418 112.445 62.2297V62.1626ZM100.818 60.508V50.4012C101.961 49.5091 103.37 49.0246 104.82 49.0246C106.271 49.0246 107.679 49.5091 108.823 50.4012V60.5303C108.789 61.1213 108.584 61.6896 108.232 62.166C107.881 62.6424 107.399 63.0064 106.844 63.2135C106.239 63.5921 105.533 63.7756 104.82 63.739C104.108 63.7793 103.4 63.5956 102.797 63.2135C102.239 63.0113 101.754 62.6487 101.402 62.1712C101.049 61.6938 100.846 61.1229 100.818 60.5303V60.508ZM154.482 56.7403V65.3377C154.482 65.4741 154.428 65.605 154.332 65.7014C154.235 65.7978 154.104 65.852 153.968 65.852H149.697C149.561 65.852 149.43 65.7978 149.333 65.7014C149.237 65.605 149.183 65.4741 149.183 65.3377V64.9017C147.887 65.5447 146.459 65.8777 145.013 65.8744C142.518 65.7893 140.154 64.7385 138.419 62.9436C136.684 61.1487 135.715 58.7501 135.715 56.254C135.715 53.7578 136.684 51.3592 138.419 49.5643C140.154 47.7694 142.518 46.7186 145.013 46.6335C146.893 46.6412 148.728 47.2138 150.278 48.277C151.648 49.2038 152.752 50.4721 153.482 51.9564C154.211 53.4407 154.541 55.0897 154.437 56.7403H154.482ZM149.16 60.5303V50.4012C147.361 48.8136 142.81 48.1652 140.552 50.759V61.0111C140.763 61.6598 141.146 62.2393 141.659 62.688C142.173 63.1368 142.799 63.4382 143.47 63.5601C144.365 63.8324 145.319 63.8457 146.221 63.5984C147.123 63.3511 147.937 62.8533 148.568 62.1626C148.935 61.696 149.143 61.1238 149.16 60.5303ZM134.146 57.3216C134.205 56.7982 134.234 56.272 134.235 55.7453V47.159C134.235 47.159 134.235 47.1031 134.235 47.0807V39.646H128.902V47.595C127.619 46.9622 126.207 46.6333 124.777 46.6335C122.282 46.7186 119.918 47.7694 118.183 49.5643C116.448 51.3592 115.479 53.7578 115.479 56.254C115.479 58.7501 116.448 61.1487 118.183 62.9436C119.918 64.7385 122.282 65.7893 124.777 65.8744C127.123 65.8683 129.383 64.9891 131.117 63.4082C132.851 61.8272 133.935 59.6576 134.157 57.3216H134.146ZM128.925 51.9776V62.1067C127.125 63.7055 122.574 64.3427 120.316 61.7601V51.4968C120.696 49.6409 123.156 48.7242 124.676 48.7689C125.459 48.6993 126.243 48.8835 126.912 49.2944C127.467 49.5003 127.951 49.864 128.302 50.3406C128.654 50.8173 128.858 51.3862 128.891 51.9776H128.925ZM155.522 65.8744H160.553V51.3403C161.76 50.5801 163.281 51.2621 165.472 52.5701C166.042 52.9167 166.422 52.5701 166.4 51.877L166.266 48.0087C165.431 47.4761 164.492 47.13 163.511 46.994C162.53 46.8581 161.532 46.9356 160.584 47.2211C159.636 47.5067 158.761 47.9936 158.018 48.6486C157.276 49.3036 156.684 50.1111 156.282 51.0161C155.659 52.4197 155.397 53.9573 155.522 55.4881V65.9191V65.8744ZM172.292 46.8683V47.3379H176.999C177.095 47.3284 177.191 47.3571 177.266 47.4177C177.342 47.4783 177.39 47.5661 177.401 47.6621V49.1937C177.39 49.2897 177.342 49.3775 177.266 49.4381C177.191 49.4987 177.095 49.5274 176.999 49.518H172.292V62.185C173.589 62.9564 175.892 61.503 178.24 60.1837C178.844 59.8483 179.268 60.1837 179.235 60.8769L179.09 64.7564C177.984 65.4151 176.734 65.7912 175.448 65.8512C174.163 65.9113 172.883 65.6536 171.721 65.1008C170.559 64.548 169.551 63.7173 168.787 62.6822C168.023 61.6471 167.525 60.4395 167.339 59.1664V40.0485C167.338 39.9961 167.347 39.9441 167.366 39.8953C167.385 39.8465 167.413 39.802 167.45 39.7645C167.486 39.727 167.53 39.6972 167.578 39.6768C167.626 39.6564 167.678 39.646 167.731 39.646H171.901C172.006 39.6489 172.105 39.6926 172.178 39.7677C172.251 39.8429 172.292 39.9436 172.292 40.0485V46.8348V46.8683ZM189.23 46.6782C191.349 46.6786 193.406 47.3957 195.066 48.713C196.419 49.7726 197.538 51.1012 198.353 52.6148C198.398 52.6881 198.427 52.7703 198.437 52.8559C198.448 52.9414 198.439 53.0282 198.413 53.1101C198.386 53.1921 198.342 53.2673 198.283 53.3304C198.225 53.3935 198.153 53.4431 198.073 53.4757L184.445 59.5688V61.0111C184.944 61.8243 185.637 62.5006 186.463 62.9788C187.288 63.457 188.22 63.7221 189.174 63.7502C190.028 63.6996 190.857 63.4421 191.589 63C192.321 62.5579 192.935 61.9444 193.378 61.2123C193.6 60.9854 193.758 60.7039 193.836 60.3962C193.937 57.713 199.091 60.6309 197.671 61.8272C197.581 61.8943 197.022 62.3527 196.374 62.8558C194.946 64.1359 193.244 65.0727 191.399 65.5949C190.689 65.7663 189.96 65.8526 189.23 65.852C186.735 65.767 184.371 64.7161 182.636 62.9213C180.901 61.1264 179.932 58.7278 179.932 56.2316C179.932 53.7354 180.901 51.3368 182.636 49.5419C184.371 47.747 186.735 46.6962 189.23 46.6112V46.6782ZM194.585 51.944C194.591 51.907 194.591 51.8693 194.585 51.8322C194.491 51.6603 194.379 51.4991 194.25 51.3515C192.64 49.5068 190.068 48.2099 187.62 49.0149C186.326 49.4701 185.221 50.3434 184.478 51.4968V56.6285L194.417 51.9999L194.641 51.8993L194.585 51.944Z" fill="#292320"/>
<path fill-rule="evenodd" clip-rule="evenodd" d="M10.1179 53.118C10.1179 53.0397 10.0397 52.9726 10.0061 52.8944C9.57772 51.9774 9.35634 50.9773 9.3577 49.9652C9.3577 48.1001 10.0986 46.3114 11.4174 44.9926C12.7362 43.6738 14.5249 42.9329 16.39 42.9329C18.255 42.9329 20.0437 43.6738 21.3625 44.9926C22.6813 46.3114 23.4222 48.1001 23.4222 49.9652C23.4236 50.9773 23.2022 51.9774 22.7738 52.8944C22.7738 52.9726 22.6955 53.0397 22.662 53.118L22.8856 53.0062C23.8043 52.5854 24.8043 52.3717 25.8147 52.3801C27.6798 52.3801 29.4685 53.121 30.7873 54.4398C32.1061 55.7586 32.847 57.5473 32.847 59.4123C32.847 61.2774 32.1061 63.0661 30.7873 64.3849C29.4685 65.7037 27.6798 66.4446 25.8147 66.4446C24.8026 66.4459 23.8026 66.2246 22.8856 65.7961L22.662 65.6843C22.662 65.7514 22.7402 65.8297 22.7738 65.9079C23.2009 66.8214 23.4223 67.8175 23.4222 68.8259C23.4222 70.691 22.6813 72.4797 21.3625 73.7985C20.0437 75.1173 18.255 75.8582 16.39 75.8582C14.5249 75.8582 12.7362 75.1173 11.4174 73.7985C10.0986 72.4797 9.3577 70.691 9.3577 68.8259C9.35761 67.8175 9.57897 66.8214 10.0061 65.9079C10.0061 65.8297 10.0844 65.7514 10.1179 65.6843L9.87199 65.7961C8.95852 66.2233 7.9624 66.4447 6.95399 66.4446C5.08892 66.4446 3.30024 65.7037 1.98144 64.3849C0.662634 63.0661 -0.0782623 61.2774 -0.0782623 59.4123C-0.0782623 57.5473 0.662634 55.7586 1.98144 54.4398C3.30024 53.121 5.08892 52.3801 6.95399 52.3801C7.9624 52.38 8.95852 52.6013 9.87199 53.0285L10.0956 53.1403L10.1179 53.118ZM16.39 47.0919H12.8794C12.2442 47.7336 11.8318 48.5622 11.703 49.4559C11.5742 50.3495 11.7358 51.2609 12.1639 52.0558C12.2669 52.2075 12.4077 52.3296 12.5724 52.41C12.7372 52.4905 12.9201 52.5264 13.103 52.5142C13.457 52.455 13.8204 52.4936 14.1539 52.626C15.1825 53.2074 14.0198 55.7453 12.7788 55.7676C12.7788 57.0198 10.2186 58.1825 9.62602 57.154C9.49937 56.819 9.46087 56.4571 9.51422 56.103C9.52637 55.9201 9.49045 55.7372 9.41004 55.5725C9.32962 55.4077 9.20752 55.2669 9.05584 55.1639C8.26184 54.7322 7.3496 54.5686 6.45508 54.6976C5.56056 54.8265 4.73165 55.2411 4.0919 55.8794V62.9005C4.73297 63.5371 5.56252 63.9495 6.45698 64.0764C7.35145 64.2034 8.26299 64.0379 9.05584 63.6048C9.20662 63.5037 9.32828 63.3648 9.4087 63.202C9.48912 63.0392 9.5255 62.8581 9.51422 62.6769C9.46142 62.3191 9.49988 61.9538 9.62602 61.6148C10.2186 60.5862 12.7453 61.7601 12.7788 63.0011C14.0198 63.0011 15.1825 65.5614 14.1539 66.1539C13.819 66.2806 13.4571 66.319 13.103 66.2657C12.9201 66.2536 12.7372 66.2895 12.5724 66.3699C12.4077 66.4503 12.2669 66.5724 12.1639 66.7241C11.7349 67.5169 11.5728 68.4268 11.7017 69.3189C11.8306 70.2111 12.2436 71.0379 12.8794 71.6768H19.934C20.5715 71.0389 20.9855 70.2119 21.1145 69.3193C21.2434 68.4267 21.0804 67.5164 20.6496 66.7241C20.5466 66.5724 20.4058 66.4503 20.241 66.3699C20.0763 66.2895 19.8934 66.2536 19.7104 66.2657C19.3563 66.319 18.9945 66.2806 18.6595 66.1539C17.6309 65.5614 18.7937 63.0347 20.0458 63.0011C20.0458 61.7601 22.5949 60.5862 23.1874 61.6148C23.3136 61.9538 23.352 62.3191 23.2992 62.6769C23.288 62.8581 23.3243 63.0392 23.4048 63.202C23.4852 63.3648 23.6068 63.5037 23.7576 63.6048C24.5505 64.0379 25.462 64.2034 26.3565 64.0764C27.2509 63.9495 28.0805 63.5371 28.7216 62.9005V55.8794C28.0818 55.2411 27.2529 54.8265 26.3584 54.6976C25.4639 54.5686 24.5516 54.7322 23.7576 55.1639C23.6059 55.2669 23.4838 55.4077 23.4034 55.5725C23.323 55.7372 23.2871 55.9201 23.2992 56.103C23.3526 56.4571 23.3141 56.819 23.1874 57.154C22.5949 58.1825 20.0682 57.0198 20.0458 55.7676C18.7937 55.7676 17.6309 53.2074 18.6595 52.626C18.9931 52.4936 19.3565 52.455 19.7104 52.5142C19.8934 52.5264 20.0763 52.4905 20.241 52.41C20.4058 52.3296 20.5466 52.2075 20.6496 52.0558C21.0813 51.2618 21.2448 50.3496 21.1159 49.4551C20.9869 48.5606 20.5724 47.7317 19.934 47.0919H16.39Z" fill="#292320"/>
</g>
<defs>
<clipPath id="clip0">
<rect width="200" height="35.9551" fill="white" transform="translate(0 43)"/>
</clipPath>
</defs>
</svg>
