<svg width="200" height="121" viewBox="0 0 200 121" fill="none" xmlns="http://www.w3.org/2000/svg">
<g clip-path="url(#clip0)">
<path d="M32.45 43.29L32.15 43.23V45.81H32.36C35.7184 46.4389 38.7429 48.244 40.8907 50.9013C43.0386 53.5586 44.1693 56.8943 44.08 60.31C44.0822 63.1475 43.2675 65.9256 41.7334 68.3125C40.1992 70.6995 38.0104 72.5944 35.4284 73.7709C32.8463 74.9474 29.9802 75.3558 27.1723 74.9474C24.3644 74.5389 21.7334 73.3308 19.5936 71.4674C17.4538 69.604 15.8956 67.164 15.1051 64.4389C14.3146 61.7137 14.3253 58.8187 15.1358 56.0994C15.9463 53.3802 17.5224 50.9518 19.6759 49.1041C21.8294 47.2565 24.4692 46.0678 27.28 45.68V68.99C23.38 68.15 19.45 64.99 19.45 60.92C19.3831 59.2963 19.8124 57.6907 20.6806 56.317C21.5488 54.9432 22.8147 53.8665 24.31 53.23L24.48 53.17V50.62L24.14 50.74C22.0334 51.4848 20.2088 52.8629 18.9162 54.6854C17.6236 56.5079 16.9263 58.6856 16.92 60.92C16.92 67.02 23.58 71.75 29.3 71.75H29.56V71.56H29.81V43H29.3C24.8435 42.9984 20.5579 44.7147 17.3344 47.7919C14.1108 50.8691 12.1975 55.0704 11.9922 59.5222C11.7869 63.9739 13.3055 68.3335 16.2321 71.6943C19.1588 75.0551 23.2683 77.1585 27.706 77.5671C32.1437 77.9756 36.5681 76.6579 40.0592 73.8879C43.5503 71.1179 45.8393 67.1089 46.4503 62.6945C47.0612 58.2801 45.9471 53.8 43.3396 50.186C40.7321 46.572 36.8319 44.1021 32.45 43.29V43.29Z" fill="black"/>
<path d="M125.46 60.29C125.419 58.744 125.69 57.2056 126.254 55.7658C126.819 54.326 127.667 53.0142 128.748 51.908C129.828 50.8019 131.12 49.9238 132.546 49.3258C133.973 48.7279 135.505 48.4222 137.051 48.4269C138.598 48.4316 140.127 48.7465 141.55 49.3531C142.973 49.9597 144.259 50.8456 145.333 51.9583C146.407 53.071 147.247 54.3879 147.803 55.8311C148.359 57.2742 148.62 58.8143 148.57 60.36C148.473 63.3658 147.208 66.2154 145.045 68.304C142.881 70.3927 139.988 71.5559 136.981 71.5468C133.974 71.5377 131.088 70.357 128.937 68.2553C126.786 66.1536 125.539 63.2963 125.46 60.29V60.29ZM128.65 60.29C128.725 62.4559 129.638 64.508 131.197 66.0137C132.755 67.5193 134.838 68.3609 137.005 68.3609C139.172 68.3609 141.255 67.5193 142.813 66.0137C144.372 64.508 145.285 62.4559 145.36 60.29C145.399 59.1685 145.211 58.0506 144.809 57.0031C144.407 55.9555 143.797 54.9997 143.018 54.1926C142.238 53.3855 141.304 52.7436 140.271 52.3052C139.238 51.8668 138.127 51.6409 137.005 51.6409C135.883 51.6409 134.772 51.8668 133.739 52.3052C132.706 52.7436 131.772 53.3855 130.992 54.1926C130.213 54.9997 129.603 55.9555 129.201 57.0031C128.799 58.0506 128.611 59.1685 128.65 60.29V60.29Z" fill="black"/>
<path d="M58.76 49.16C63.76 48.46 67.76 50.16 70.39 54.45C71.5231 56.1977 72.1194 58.2391 72.1052 60.322C72.091 62.4048 71.4669 64.4379 70.31 66.17C67.69 70.45 63.78 72.17 58.76 71.45V49.16ZM61.95 68.21C65.7 67.91 68.95 64.07 68.8 60.13C68.65 56.19 65.36 52.44 61.95 52.41V68.21Z" fill="black"/>
<path d="M175.26 49.16C180.26 48.46 184.26 50.16 186.89 54.45C188.022 56.1987 188.616 58.2406 188.6 60.3235C188.584 62.4063 187.958 64.4389 186.8 66.17C184.18 70.45 180.28 72.17 175.26 71.45V49.16ZM178.45 68.21C182.2 67.91 185.45 64.07 185.29 60.13C185.13 56.19 181.86 52.44 178.45 52.41V68.21Z" fill="black"/>
<path d="M89.69 48.91H93.04C93.04 49.13 93.1 49.33 93.1 49.53C93.1 54.7 93.1 59.87 93.1 65.04C93.1 68.54 91.22 71.04 88.1 71.87C83.58 73 79.18 70.15 79.23 65.13C79.23 59.9 79.23 54.68 79.23 49.46C79.23 49.31 79.23 49.15 79.23 48.94H82.69V49.81C82.69 54.9567 82.69 60.1 82.69 65.24C82.6359 65.8943 82.7857 66.5493 83.1187 67.1151C83.4517 67.6809 83.9517 68.1297 84.55 68.4C85.1668 68.718 85.8616 68.853 86.5526 68.7892C87.2435 68.7255 87.9019 68.4655 88.45 68.04C88.8771 67.7166 89.2149 67.29 89.4318 66.8002C89.6487 66.3105 89.7376 65.7736 89.69 65.24V48.91Z" fill="black"/>
<path d="M100.13 71.61H103.68V55.93L109.92 67.24L110.9 67.23L117.19 55.93L117.35 71.86H120.65V48.75H117.56L110.69 61.54L103.21 48.9H100.13V71.61Z" fill="black"/>
<path d="M153.97 71.86H157.11V56.25L166.06 71.86H168.68V49.16H165.81L165.97 65.7L156.52 49.16H153.97V71.86Z" fill="black"/>
</g>
<defs>
<clipPath id="clip0">
<rect width="176.6" height="34.61" fill="white" transform="translate(12 43)"/>
</clipPath>
</defs>
</svg>
