<svg width="200" height="121" viewBox="0 0 200 121" fill="none" xmlns="http://www.w3.org/2000/svg">
<g clip-path="url(#clip0)">
<path fill-rule="evenodd" clip-rule="evenodd" d="M161.97 60.62V60.08C161.972 58.3764 162.314 56.6903 162.974 55.1197C163.634 53.5491 164.599 52.1255 165.815 50.9316C167.03 49.7377 168.471 48.7974 170.053 48.1654C171.635 47.5333 173.327 47.2222 175.03 47.25C181.95 47.25 187.75 52.91 187.72 59.61V60.98C187.72 67.05 181.54 72.74 175.23 72.72C171.823 72.8135 168.517 71.5594 166.03 69.23C164.24 67.45 161.96 64.05 161.97 60.62ZM159.17 60.62C159.17 68.04 166.37 74.89 174.24 74.91H176.24C183.39 74.91 190.54 67.91 190.56 60.71V59.07C190.56 51.44 183.15 44.94 175.08 44.92C171.05 44.8153 167.138 46.2903 164.18 49.03C161.97 51.2 159.23 54.76 159.18 58.97L159.17 60.62Z" fill="#312D2C"/>
<path fill-rule="evenodd" clip-rule="evenodd" d="M128.93 65.31L129.14 45.46L131.66 45.47L131.59 65.32L131.8 45.33L129 45.32L128.93 65.31Z" fill="#312D2C"/>
<path d="M74.2795 45.2855L74.1896 73.9053L76.8496 73.9137L76.9395 45.2938L74.2795 45.2855Z" fill="#312D2C"/>
<path fill-rule="evenodd" clip-rule="evenodd" d="M74.18 73.9L74.28 45.28L76.94 45.29L76.84 73.91L76.94 45.29L74.28 45.28L74.18 73.9Z" fill="#312D2C"/>
<path fill-rule="evenodd" clip-rule="evenodd" d="M90.68 50.69L99.11 73.84L102.17 73.85L90.9 44.66L90.66 44.65L78.92 73.77H81.84L90.68 50.69Z" fill="#312D2C"/>
<path fill-rule="evenodd" clip-rule="evenodd" d="M60.97 68.16L52.53 45.01L49.47 44.99L60.74 74.18L60.99 74.2L72.73 45.08L69.8 45.07L60.97 68.16Z" fill="#312D2C"/>
<path fill-rule="evenodd" clip-rule="evenodd" d="M131.59 65.32L131.65 45.46H129.14L128.93 65.31C128.93 69.79 125.93 72.56 121.35 72.54H121.07C115.19 72.54 112.96 69.4 112.98 63.61L113.04 45.4H110.38V62.4C110.38 69.83 112.85 74.74 120.38 74.76H122.38C127.77 74.75 131.45 70.54 131.59 65.32Z" fill="#312D2C"/>
<path fill-rule="evenodd" clip-rule="evenodd" d="M156.19 73.89L156.33 74.03L156.47 74.16L156.61 74.3L156.75 74.44L156.89 74.58L157.03 74.71L157.27 45.55L154.89 45.54L154.78 68.3L154.53 68L154.39 67.86L134.09 44.34L133.94 74.09L136.46 74.1L136.53 51.1L156.19 73.89Z" fill="#312D2C"/>
<path fill-rule="evenodd" clip-rule="evenodd" d="M25.86 44.25C29.1524 44.2441 32.3725 45.2149 35.1129 47.0398C37.8532 48.8646 39.9907 51.4613 41.2547 54.5013C42.5188 57.5414 42.8526 60.8881 42.2139 64.1179C41.5753 67.3477 39.9928 70.3155 37.6669 72.6456C35.3409 74.9758 32.376 76.5635 29.1474 77.208C25.9187 77.8525 22.5714 77.5248 19.5291 76.2662C16.4868 75.0077 13.8862 72.8749 12.0564 70.1378C10.2267 67.4007 9.25001 64.1824 9.25 60.89C9.24999 56.482 10.999 52.2541 14.1131 49.1343C17.2273 46.0146 21.452 44.258 25.86 44.25V44.25Z" stroke="#312D2C" stroke-width="0.5" stroke-miterlimit="10"/>
<path fill-rule="evenodd" clip-rule="evenodd" d="M26.52 53.44L20.52 66.9C23.07 71.25 25.34 75.13 25.8 76C25.89 75.94 38.02 55 38.69 53.79C38.7631 53.6789 38.8266 53.5618 38.88 53.44H26.52Z" fill="#312D2C"/>
<path fill-rule="evenodd" clip-rule="evenodd" d="M24.51 53.44H12.72C13.72 55.31 16.56 60.16 19.33 64.9L24.51 53.44Z" fill="#312D2C"/>
</g>
<defs>
<clipPath id="clip0">
<rect width="181.53" height="33.78" fill="white" transform="translate(9 44)"/>
</clipPath>
</defs>
</svg>
